Radio-Canada-Condensed-BoldItalic.ufo
<glyph name="exclam" format="1">
  <advance width="308.3080931492716"/>
  <unicode hex="0021"/>
  <outline>
    <contour>
      <point x="98" y="265" type="line"/>
      <point x="202" y="265" type="line"/>
      <point x="282" y="526" type="line"/>
      <point x="317" y="690" type="line"/>
      <point x="165" y="690" type="line"/>
      <point x="130" y="526" type="line"/>
    </contour>
    <contour>
      <point x="70" y="167"/>
      <point x="20" y="122"/>
      <point x="20" y="60" type="curve" smooth="yes"/>
      <point x="20" y="20"/>
      <point x="52" y="-12"/>
      <point x="94" y="-12" type="curve" smooth="yes"/>
      <point x="152" y="-12"/>
      <point x="202" y="33"/>
      <point x="202" y="95" type="curve" smooth="yes"/>
      <point x="202" y="135"/>
      <point x="170" y="167"/>
      <point x="128" y="167" type="curve" smooth="yes"/>
    </contour>
  </outline>
</glyph>
<glyph name="numbersign" format="1">
  <advance width="707.369230451508"/>
  <unicode hex="0023"/>
  <outline>
    <contour>
      <point x="35" y="0" type="line"/>
      <point x="173" y="0" type="line"/>
      <point x="460" y="690" type="line"/>
      <point x="322" y="690" type="line"/>
    </contour>
    <contour>
      <point x="16" y="146" type="line"/>
      <point x="579" y="146" type="line"/>
      <point x="609" y="285" type="line"/>
      <point x="46" y="285" type="line"/>
    </contour>
    <contour>
      <point x="125" y="405" type="line"/>
      <point x="689" y="405" type="line"/>
      <point x="719" y="544" type="line"/>
      <point x="155" y="544" type="line"/>
    </contour>
    <contour>
      <point x="275" y="0" type="line"/>
      <point x="413" y="0" type="line"/>
      <point x="699" y="690" type="line"/>
      <point x="561" y="690" type="line"/>
    </contour>
  </outline>
</glyph>
<glyph name="dollar" format="1">
  <advance width="500"/>
  <unicode hex="0024"/>
  <outline>
    <contour>
      <point x="-32" y="82" type="line"/>
      <point x="31" y="27"/>
      <point x="122" y="-12"/>
      <point x="222" y="-12" type="curve"/>
      <point x="373" y="-12"/>
      <point x="461.5" y="86"/>
      <point x="461.5" y="196" type="curve"/>
      <point x="461.5" y="272"/>
      <point x="425.5" y="341"/>
      <point x="311.5" y="415" type="curve" smooth="yes"/>
      <point x="240.5" y="461"/>
      <point x="228.5" y="488"/>
      <point x="228.5" y="512" type="curve"/>
      <point x="228.5" y="541"/>
      <point x="257" y="571"/>
      <point x="298" y="571" type="curve"/>
      <point x="347" y="571"/>
      <point x="404" y="545"/>
      <point x="452" y="506" type="curve"/>
      <point x="518" y="630" type="line"/>
      <point x="463" y="672"/>
      <point x="384" y="702"/>
      <point x="319" y="702" type="curve"/>
      <point x="173" y="702"/>
      <point x="78.5" y="611"/>
      <point x="78.5" y="496" type="curve"/>
      <point x="78.5" y="433"/>
      <point x="101.5" y="374"/>
      <point x="225.5" y="290" type="curve" smooth="yes"/>
      <point x="293.5" y="244"/>
      <point x="303.5" y="220"/>
      <point x="303.5" y="193" type="curve"/>
      <point x="303.5" y="157"/>
      <point x="279" y="123"/>
      <point x="219" y="123" type="curve"/>
      <point x="165" y="123"/>
      <point x="100" y="154"/>
      <point x="50" y="203" type="curve"/>
    </contour>
    <contour>
      <point x="102.5" y="-100" type="line"/>
      <point x="231.5" y="-100" type="line"/>
      <point x="268" y="71" type="line"/>
      <point x="148" y="113" type="line"/>
    </contour>
    <contour>
      <point x="252.5" y="607" type="line"/>
      <point x="373" y="566" type="line"/>
      <point x="420.5" y="790" type="line"/>
      <point x="291.5" y="790" type="line"/>
    </contour>
  </outline>
</glyph>
<glyph name="ampersand" format="1">
  <advance width="549.0"/>
  <unicode hex="0026"/>
  <outline>
    <contour>
      <point x="7" y="148" type="curve"/>
      <point x="7" y="55"/>
      <point x="70" y="-10"/>
      <point x="166" y="-10" type="curve"/>
      <point x="312" y="-10"/>
      <point x="433" y="122"/>
      <point x="523" y="300" type="curve"/>
      <point x="422" y="352" type="line"/>
      <point x="349" y="202"/>
      <point x="263" y="122"/>
      <point x="197" y="122" type="curve"/>
      <point x="166" y="122"/>
      <point x="146" y="143"/>
      <point x="146" y="175" type="curve"/>
      <point x="146" y="219"/>
      <point x="174" y="252"/>
      <point x="234" y="284" type="curve"/>
      <point x="322" y="336" type="line"/>
      <point x="441" y="394"/>
      <point x="484" y="465"/>
      <point x="484" y="539" type="curve" smooth="yes"/>
      <point x="484" y="624"/>
      <point x="431" y="700"/>
      <point x="327" y="700" type="curve"/>
      <point x="205" y="700"/>
      <point x="140" y="618"/>
      <point x="140" y="521" type="curve" smooth="yes"/>
      <point x="140" y="454"/>
      <point x="166" y="396"/>
      <point x="193" y="339" type="curve" smooth="yes"/>
      <point x="353" y="0" type="line"/>
      <point x="500" y="0" type="line"/>
      <point x="302" y="411" type="line" smooth="yes"/>
      <point x="281" y="455"/>
      <point x="267" y="489"/>
      <point x="267" y="524" type="curve" smooth="yes"/>
      <point x="267" y="562"/>
      <point x="287" y="587"/>
      <point x="319" y="587" type="curve"/>
      <point x="345" y="587"/>
      <point x="362" y="568"/>
      <point x="362" y="532" type="curve" smooth="yes"/>
      <point x="362" y="491"/>
      <point x="335" y="462"/>
      <point x="275" y="432" type="curve"/>
      <point x="187" y="383" type="line"/>
      <point x="61" y="322"/>
      <point x="7" y="245"/>
    </contour>
  </outline>
</glyph>
<glyph name="parenleft" format="1">
  <advance width="254.63687795070462"/>
  <unicode hex="0028"/>
  <outline>
    <contour>
      <point x="36" y="161" type="curve"/>
      <point x="32" y="10"/>
      <point x="60" y="-143"/>
      <point x="115" y="-258" type="curve"/>
      <point x="200" y="-210" type="line"/>
      <point x="173" y="-122"/>
      <point x="155" y="14"/>
      <point x="159" y="147" type="curve"/>
      <point x="165" y="335"/>
      <point x="251" y="562"/>
      <point x="394" y="731" type="curve"/>
      <point x="337" y="793" type="line"/>
      <point x="175" y="645"/>
      <point x="45" y="404"/>
    </contour>
  </outline>
</glyph>
<glyph name="asterisk" format="1">
  <advance width="471.5477372750493"/>
  <unicode hex="002A"/>
  <outline>
    <contour>
      <point x="75" y="495" type="line"/>
      <point x="202" y="456" type="line"/>
      <point x="77" y="322" type="line"/>
      <point x="165" y="235" type="line"/>
      <point x="272" y="390" type="line"/>
      <point x="323" y="232" type="line"/>
      <point x="435" y="310" type="line"/>
      <point x="352" y="451" type="line"/>
      <point x="501" y="485" type="line"/>
      <point x="492" y="621" type="line"/>
      <point x="344" y="547" type="line"/>
      <point x="398" y="720" type="line"/>
      <point x="264" y="720" type="line"/>
      <point x="253" y="547" type="line"/>
      <point x="127" y="626" type="line"/>
    </contour>
  </outline>
</glyph>
<glyph name="plus" format="1">
  <advance width="500"/>
  <unicode hex="002B"/>
  <outline>
    <contour>
      <point x="35.0" y="220" type="line"/>
      <point x="439.0" y="220" type="line"/>
      <point x="469.0" y="360" type="line"/>
      <point x="65.0" y="360" type="line"/>
    </contour>
    <contour>
      <point x="139.0" y="54" type="line"/>
      <point x="267.0" y="54" type="line"/>
      <point x="368.0" y="525" type="line"/>
      <point x="240.0" y="525" type="line"/>
    </contour>
  </outline>
</glyph>
<glyph name="comma" format="1">
  <advance width="245"/>
  <unicode hex="002C"/>
  <outline>
    <contour>
      <point x="-47" y="-185" type="line"/>
      <point x="33" y="-185" type="line"/>
      <point x="110" y="-52" type="line" smooth="yes"/>
      <point x="140" y="0"/>
      <point x="170" y="50"/>
      <point x="170" y="95" type="curve" smooth="yes"/>
      <point x="170" y="135"/>
      <point x="138" y="167"/>
      <point x="96" y="167" type="curve" smooth="yes"/>
      <point x="38" y="167"/>
      <point x="-12" y="122"/>
      <point x="-12" y="60" type="curve" smooth="yes"/>
      <point x="-12" y="30"/>
      <point x="5" y="5"/>
      <point x="34" y="-8" type="curve"/>
    </contour>
  </outline>
</glyph>
<glyph name="period" format="1">
  <advance width="245"/>
  <unicode hex="002E"/>
  <outline>
    <contour>
      <point x="38" y="167"/>
      <point x="-12" y="122"/>
      <point x="-12" y="60" type="curve" smooth="yes"/>
      <point x="-12" y="20"/>
      <point x="20" y="-12"/>
      <point x="62" y="-12" type="curve" smooth="yes"/>
      <point x="120" y="-12"/>
      <point x="170" y="33"/>
      <point x="170" y="95" type="curve" smooth="yes"/>
      <point x="170" y="135"/>
      <point x="138" y="167"/>
      <point x="96" y="167" type="curve" smooth="yes"/>
    </contour>
  </outline>
</glyph>
<glyph name="slash" format="1">
  <advance width="348.9592755975841"/>
  <unicode hex="002F"/>
  <outline>
    <contour>
      <point x="-66" y="-30" type="line"/>
      <point x="78" y="-30" type="line"/>
      <point x="442" y="720" type="line"/>
      <point x="298" y="720" type="line"/>
    </contour>
  </outline>
</glyph>
<glyph name="two" format="1">
  <advance width="500"/>
  <unicode hex="0032"/>
  <outline>
    <contour>
      <point x="-13" y="0" type="line"/>
      <point x="401" y="0" type="line"/>
      <point x="429" y="134" type="line"/>
      <point x="95" y="134" type="line"/>
      <point x="10" y="106" type="line"/>
    </contour>
    <contour>
      <point x="10" y="106" type="line"/>
      <point x="56" y="0" type="line"/>
      <point x="303" y="226" type="line" smooth="yes"/>
      <point x="444" y="355"/>
      <point x="492" y="426"/>
      <point x="492" y="515" type="curve"/>
      <point x="492" y="625"/>
      <point x="411" y="700"/>
      <point x="306" y="700" type="curve"/>
      <point x="217" y="700"/>
      <point x="154" y="669"/>
      <point x="83" y="598" type="curve"/>
      <point x="157" y="486" type="line"/>
      <point x="201" y="540"/>
      <point x="244" y="560"/>
      <point x="279" y="560" type="curve"/>
      <point x="314" y="560"/>
      <point x="341" y="533"/>
      <point x="341" y="494" type="curve" smooth="yes"/>
      <point x="341" y="451"/>
      <point x="305" y="395"/>
      <point x="222" y="314" type="curve" smooth="yes"/>
    </contour>
  </outline>
</glyph>
<glyph name="three" format="1">
  <advance width="500"/>
  <unicode hex="0033"/>
  <outline>
    <contour>
      <point x="-22" y="84" type="line"/>
      <point x="30" y="29"/>
      <point x="90" y="-10"/>
      <point x="189" y="-10" type="curve"/>
      <point x="339" y="-10"/>
      <point x="448" y="91"/>
      <point x="448" y="230" type="curve" smooth="yes"/>
      <point x="448" y="349"/>
      <point x="373" y="410"/>
      <point x="263" y="410" type="curve" smooth="yes"/>
      <point x="209" y="410" type="line"/>
      <point x="159" y="390" type="line"/>
      <point x="141" y="307" type="line"/>
      <point x="212" y="307" type="line" smooth="yes"/>
      <point x="274" y="307"/>
      <point x="302" y="276"/>
      <point x="302" y="227" type="curve" smooth="yes"/>
      <point x="302" y="165"/>
      <point x="256" y="122"/>
      <point x="184" y="122" type="curve"/>
      <point x="142" y="122"/>
      <point x="95" y="145"/>
      <point x="59" y="189" type="curve"/>
    </contour>
    <contour>
      <point x="93" y="556" type="line"/>
      <point x="451" y="556" type="line"/>
      <point x="500" y="589" type="line"/>
      <point x="522" y="690" type="line"/>
      <point x="122" y="690" type="line"/>
    </contour>
    <contour>
      <point x="159" y="390" type="line"/>
      <point x="308" y="390" type="line"/>
      <point x="500" y="589" type="line"/>
      <point x="450" y="690" type="line"/>
    </contour>
  </outline>
</glyph>
<glyph name="four" format="1">
  <advance width="500"/>
  <unicode hex="0034"/>
  <outline>
    <contour>
      <point x="-10" y="118" type="line"/>
      <point x="443" y="118" type="line"/>
      <point x="470" y="245" type="line"/>
      <point x="53" y="245" type="line"/>
      <point x="14" y="229" type="line"/>
    </contour>
    <contour>
      <point x="14" y="229" type="line"/>
      <point x="70" y="118" type="line"/>
      <point x="438" y="690" type="line"/>
      <point x="312" y="690" type="line"/>
    </contour>
    <contour>
      <point x="216" y="0" type="line"/>
      <point x="368" y="0" type="line"/>
      <point x="515" y="690" type="line"/>
      <point x="363" y="690" type="line"/>
    </contour>
  </outline>
</glyph>
<glyph name="five" format="1">
  <advance width="500"/>
  <unicode hex="0035"/>
  <outline>
    <contour>
      <point x="-13" y="86" type="line"/>
      <point x="35" y="30"/>
      <point x="106" y="-10"/>
      <point x="197" y="-10" type="curve"/>
      <point x="341" y="-10"/>
      <point x="460" y="89"/>
      <point x="460" y="250" type="curve" smooth="yes"/>
      <point x="460" y="360"/>
      <point x="389" y="428"/>
      <point x="296" y="428" type="curve"/>
      <point x="232" y="428"/>
      <point x="171" y="403"/>
      <point x="140" y="361" type="curve"/>
      <point x="117" y="266" type="line"/>
      <point x="155" y="299"/>
      <point x="201" y="319"/>
      <point x="237" y="319" type="curve"/>
      <point x="284" y="319"/>
      <point x="311" y="285"/>
      <point x="311" y="234" type="curve" smooth="yes"/>
      <point x="311" y="166"/>
      <point x="267" y="124"/>
      <point x="196" y="124" type="curve"/>
      <point x="152" y="124"/>
      <point x="102" y="150"/>
      <point x="67" y="191" type="curve"/>
    </contour>
    <contour>
      <point x="64" y="309" type="line"/>
      <point x="117" y="266" type="line"/>
      <point x="200" y="336" type="line"/>
      <point x="293" y="690" type="line"/>
      <point x="165" y="690" type="line"/>
    </contour>
    <contour>
      <point x="166" y="690" type="line"/>
      <point x="191" y="556" type="line"/>
      <point x="485" y="556" type="line"/>
      <point x="514" y="690" type="line"/>
    </contour>
  </outline>
</glyph>
<glyph name="seven" format="1">
  <advance width="500"/>
  <unicode hex="0037"/>
  <outline>
    <contour>
      <point x="35" y="0" type="line"/>
      <point x="198" y="0" type="line"/>
      <point x="509" y="590" type="line"/>
      <point x="421" y="690" type="line"/>
    </contour>
    <contour>
      <point x="86" y="551" type="line"/>
      <point x="459" y="551" type="line"/>
      <point x="509" y="590" type="line"/>
      <point x="531" y="690" type="line"/>
      <point x="116" y="690" type="line"/>
    </contour>
  </outline>
</glyph>
<glyph name="nine" format="1">
  <advance width="500"/>
  <unicode hex="0039"/>
  <outline>
    <contour>
      <point x="-9" y="37" type="line"/>
      <point x="29" y="7"/>
      <point x="78" y="-10"/>
      <point x="133" y="-10" type="curve" smooth="yes"/>
      <point x="327" y="-10"/>
      <point x="501" y="191"/>
      <point x="501" y="445" type="curve"/>
      <point x="501" y="605"/>
      <point x="418" y="700"/>
      <point x="297" y="700" type="curve"/>
      <point x="153" y="700"/>
      <point x="57" y="569"/>
      <point x="57" y="428" type="curve" smooth="yes"/>
      <point x="57" y="316"/>
      <point x="126" y="245"/>
      <point x="208" y="245" type="curve"/>
      <point x="262" y="245"/>
      <point x="302" y="265"/>
      <point x="344" y="316" type="curve"/>
      <point x="364" y="421" type="line"/>
      <point x="342" y="389"/>
      <point x="295" y="361"/>
      <point x="257" y="361" type="curve"/>
      <point x="221" y="361"/>
      <point x="195" y="391"/>
      <point x="195" y="441" type="curve" smooth="yes"/>
      <point x="195" y="525"/>
      <point x="240" y="572"/>
      <point x="282" y="572" type="curve"/>
      <point x="328" y="572"/>
      <point x="358" y="528"/>
      <point x="358" y="450" type="curve" smooth="yes"/>
      <point x="358" y="237"/>
      <point x="246" y="115"/>
      <point x="143" y="115" type="curve"/>
      <point x="114" y="115"/>
      <point x="87" y="126"/>
      <point x="65" y="145" type="curve"/>
    </contour>
  </outline>
</glyph>
<glyph name="colon" format="1">
  <advance width="245.32386341763123"/>
  <unicode hex="003A"/>
  <outline>
    <contour>
      <point x="117" y="537"/>
      <point x="67" y="492"/>
      <point x="67" y="430" type="curve" smooth="yes"/>
      <point x="67" y="390"/>
      <point x="99" y="358"/>
      <point x="141" y="358" type="curve" smooth="yes"/>
      <point x="199" y="358"/>
      <point x="249" y="403"/>
      <point x="249" y="465" type="curve" smooth="yes"/>
      <point x="249" y="505"/>
      <point x="217" y="537"/>
      <point x="175" y="537" type="curve" smooth="yes"/>
    </contour>
    <contour>
      <point x="38" y="167"/>
      <point x="-12" y="122"/>
      <point x="-12" y="60" type="curve" smooth="yes"/>
      <point x="-12" y="20"/>
      <point x="20" y="-12"/>
      <point x="62" y="-12" type="curve" smooth="yes"/>
      <point x="120" y="-12"/>
      <point x="170" y="33"/>
      <point x="170" y="95" type="curve" smooth="yes"/>
      <point x="170" y="135"/>
      <point x="138" y="167"/>
      <point x="96" y="167" type="curve" smooth="yes"/>
    </contour>
  </outline>
</glyph>
<glyph name="semicolon" format="1">
  <advance width="245"/>
  <unicode hex="003B"/>
  <outline>
    <contour>
      <point x="-47" y="-185" type="line"/>
      <point x="33" y="-185" type="line"/>
      <point x="110" y="-52" type="line" smooth="yes"/>
      <point x="140" y="0"/>
      <point x="170" y="50"/>
      <point x="170" y="95" type="curve" smooth="yes"/>
      <point x="170" y="135"/>
      <point x="138" y="167"/>
      <point x="96" y="167" type="curve" smooth="yes"/>
      <point x="38" y="167"/>
      <point x="-12" y="122"/>
      <point x="-12" y="60" type="curve" smooth="yes"/>
      <point x="-12" y="30"/>
      <point x="5" y="5"/>
      <point x="34" y="-8" type="curve"/>
    </contour>
    <contour>
      <point x="117" y="537"/>
      <point x="67" y="492"/>
      <point x="67" y="430" type="curve" smooth="yes"/>
      <point x="67" y="390"/>
      <point x="99" y="358"/>
      <point x="141" y="358" type="curve" smooth="yes"/>
      <point x="199" y="358"/>
      <point x="249" y="403"/>
      <point x="249" y="465" type="curve" smooth="yes"/>
      <point x="249" y="505"/>
      <point x="217" y="537"/>
      <point x="175" y="537" type="curve" smooth="yes"/>
    </contour>
  </outline>
</glyph>
<glyph name="less" format="1">
  <advance width="500"/>
  <unicode hex="003C"/>
  <outline>
    <contour>
      <point x="42.0" y="225" type="line"/>
      <point x="379.0" y="38" type="line"/>
      <point x="411.0" y="187" type="line"/>
      <point x="163.0" y="302" type="line"/>
      <point x="69.0" y="351" type="line"/>
    </contour>
    <contour>
      <point x="42.0" y="225" type="line"/>
      <point x="131.0" y="254" type="line"/>
      <point x="450.0" y="372" type="line"/>
      <point x="485.0" y="535" type="line"/>
      <point x="69.0" y="351" type="line"/>
    </contour>
  </outline>
</glyph>
<glyph name="equal" format="1">
  <advance width="500"/>
  <unicode hex="003D"/>
  <outline>
    <contour>
      <point x="8" y="95" type="line"/>
      <point x="412" y="95" type="line"/>
      <point x="442" y="234" type="line"/>
      <point x="38" y="234" type="line"/>
    </contour>
    <contour>
      <point x="62" y="346" type="line"/>
      <point x="466" y="346" type="line"/>
      <point x="495" y="485" type="line"/>
      <point x="91" y="485" type="line"/>
    </contour>
  </outline>
</glyph>
<glyph name="greater" format="1">
  <advance width="500"/>
  <unicode hex="003E"/>
  <outline>
    <contour>
      <point x="17" y="38" type="line"/>
      <point x="433.0" y="222" type="line"/>
      <point x="460.0" y="348" type="line"/>
      <point x="371.0" y="319" type="line"/>
      <point x="52.0" y="201" type="line"/>
    </contour>
    <contour>
      <point x="91" y="386" type="line"/>
      <point x="339" y="271" type="line"/>
      <point x="433" y="222" type="line"/>
      <point x="460" y="348" type="line"/>
      <point x="123" y="535" type="line"/>
    </contour>
  </outline>
</glyph>
<glyph name="question" format="1">
  <advance width="442.61871894989264"/>
  <unicode hex="003F"/>
  <outline>
    <contour>
      <point x="62" y="597" type="curve"/>
      <point x="134" y="481" type="line"/>
      <point x="181" y="535"/>
      <point x="208" y="550"/>
      <point x="242" y="550" type="curve"/>
      <point x="273" y="550"/>
      <point x="291" y="529"/>
      <point x="291" y="505" type="curve" smooth="yes"/>
      <point x="291" y="478"/>
      <point x="278" y="456"/>
      <point x="211" y="401" type="curve" smooth="yes"/>
      <point x="171" y="368"/>
      <point x="152" y="340"/>
      <point x="153" y="286" type="curve" smooth="yes"/>
      <point x="154" y="249" type="line"/>
      <point x="253" y="249" type="line"/>
      <point x="259" y="269" type="line" smooth="yes"/>
      <point x="265" y="291"/>
      <point x="279" y="309"/>
      <point x="297" y="321" type="curve" smooth="yes"/>
      <point x="417" y="401"/>
      <point x="449" y="468"/>
      <point x="449" y="544" type="curve" smooth="yes"/>
      <point x="449" y="630"/>
      <point x="380" y="700"/>
      <point x="277" y="700" type="curve"/>
      <point x="203" y="700"/>
      <point x="125" y="668"/>
    </contour>
    <contour>
      <point x="128" y="167"/>
      <point x="78" y="122"/>
      <point x="78" y="60" type="curve" smooth="yes"/>
      <point x="78" y="20"/>
      <point x="110" y="-12"/>
      <point x="152" y="-12" type="curve" smooth="yes"/>
      <point x="210" y="-12"/>
      <point x="260" y="33"/>
      <point x="260" y="95" type="curve" smooth="yes"/>
      <point x="260" y="135"/>
      <point x="228" y="167"/>
      <point x="186" y="167" type="curve" smooth="yes"/>
    </contour>
  </outline>
</glyph>
<glyph name="at" format="1">
  <advance width="860.4510134029623"/>
  <unicode hex="0040"/>
  <outline>
    <contour>
      <point x="18" y="169" type="curve" smooth="yes"/>
      <point x="18" y="-58"/>
      <point x="140" y="-195"/>
      <point x="369" y="-195" type="curve"/>
      <point x="422" y="-195"/>
      <point x="481" y="-187"/>
      <point x="541" y="-168" type="curve"/>
      <point x="527" y="-55" type="line"/>
      <point x="481" y="-71"/>
      <point x="417" y="-83"/>
      <point x="377" y="-83" type="curve"/>
      <point x="205" y="-83"/>
      <point x="132" y="31"/>
      <point x="132" y="175" type="curve" smooth="yes"/>
      <point x="132" y="414"/>
      <point x="289" y="590"/>
      <point x="484" y="590" type="curve"/>
      <point x="648" y="590"/>
      <point x="717" y="496"/>
      <point x="717" y="337" type="curve" smooth="yes"/>
      <point x="717" y="190"/>
      <point x="648" y="101"/>
      <point x="616" y="101" type="curve"/>
      <point x="597" y="101"/>
      <point x="583" y="120"/>
      <point x="595" y="177" type="curve" smooth="yes"/>
      <point x="660" y="495" type="line"/>
      <point x="534" y="495" type="line"/>
      <point x="516" y="454" type="line"/>
      <point x="476" y="267" type="line" smooth="yes"/>
      <point x="460" y="190"/>
      <point x="416" y="122"/>
      <point x="370" y="122" type="curve"/>
      <point x="341" y="122"/>
      <point x="325" y="145"/>
      <point x="325" y="200" type="curve" smooth="yes"/>
      <point x="325" y="288"/>
      <point x="366" y="383"/>
      <point x="434" y="383" type="curve"/>
      <point x="464" y="383"/>
      <point x="492" y="368"/>
      <point x="514" y="335" type="curve"/>
      <point x="535" y="452" type="line"/>
      <point x="507" y="484"/>
      <point x="471" y="502"/>
      <point x="427" y="502" type="curve"/>
      <point x="299" y="502"/>
      <point x="187" y="345"/>
      <point x="187" y="175" type="curve"/>
      <point x="187" y="67"/>
      <point x="231" y="-10"/>
      <point x="321" y="-10" type="curve"/>
      <point x="385" y="-10"/>
      <point x="440" y="38"/>
      <point x="465" y="81" type="curve"/>
      <point x="450" y="103" type="line"/>
      <point x="463" y="32"/>
      <point x="508" y="-18"/>
      <point x="581" y="-18" type="curve"/>
      <point x="727" y="-18"/>
      <point x="827" y="150"/>
      <point x="827" y="340" type="curve" smooth="yes"/>
      <point x="827" y="568"/>
      <point x="698" y="700"/>
      <point x="494" y="700" type="curve"/>
      <point x="245" y="700"/>
      <point x="18" y="492"/>
    </contour>
  </outline>
</glyph>
<glyph name="A" format="1">
  <advance width="555.0"/>
  <unicode hex="0041"/>
  <outline>
    <contour>
      <point x="-62" y="0" type="line"/>
      <point x="95" y="0" type="line"/>
      <point x="350" y="537" type="line"/>
      <point x="376" y="690" type="line"/>
      <point x="310" y="690" type="line"/>
    </contour>
    <contour>
      <point x="115" y="142" type="line"/>
      <point x="393" y="142" type="line"/>
      <point x="422" y="264" type="line"/>
      <point x="144" y="264" type="line"/>
    </contour>
    <contour>
      <point x="320" y="537" type="line"/>
      <point x="351" y="0" type="line"/>
      <point x="497" y="0" type="line"/>
      <point x="423" y="690" type="line"/>
      <point x="359" y="690" type="line"/>
    </contour>
    <contour>
      <point x="365" y="690" type="move" name="top"/>
    </contour>
    <contour>
      <point x="351" y="0" type="move" name="ogonek"/>
    </contour>
    <contour>
      <point x="223" y="0" type="move" name="bottom"/>
    </contour>
  </outline>
</glyph>
<glyph name="B" format="1">
  <advance width="544.5397257728446"/>
  <unicode hex="0042"/>
  <outline>
    <contour>
      <point x="10" y="0" type="line"/>
      <point x="156" y="0" type="line"/>
      <point x="303" y="690" type="line"/>
      <point x="157" y="690" type="line"/>
    </contour>
    <contour>
      <point x="77" y="0" type="line"/>
      <point x="250" y="0" type="line" smooth="yes"/>
      <point x="388" y="0"/>
      <point x="496" y="94"/>
      <point x="496" y="221" type="curve" smooth="yes"/>
      <point x="496" y="316"/>
      <point x="428" y="387"/>
      <point x="323" y="387" type="curve" smooth="yes"/>
      <point x="160" y="387" type="line"/>
      <point x="138" y="295" type="line"/>
      <point x="299" y="295" type="line" smooth="yes"/>
      <point x="332" y="295"/>
      <point x="353" y="270"/>
      <point x="353" y="225" type="curve" smooth="yes"/>
      <point x="353" y="172"/>
      <point x="312" y="124"/>
      <point x="268" y="124" type="curve" smooth="yes"/>
      <point x="107" y="124" type="line"/>
    </contour>
    <contour>
      <point x="147" y="329" type="line"/>
      <point x="288" y="329" type="line" smooth="yes"/>
      <point x="417" y="329"/>
      <point x="534" y="414"/>
      <point x="534" y="537" type="curve"/>
      <point x="534" y="627"/>
      <point x="469" y="690"/>
      <point x="368" y="690" type="curve" smooth="yes"/>
      <point x="225" y="690" type="line"/>
      <point x="194" y="566" type="line"/>
      <point x="338" y="566" type="line" smooth="yes"/>
      <point x="370" y="566"/>
      <point x="390" y="542"/>
      <point x="390" y="501" type="curve" smooth="yes"/>
      <point x="390" y="452"/>
      <point x="358" y="405"/>
      <point x="310" y="405" type="curve" smooth="yes"/>
      <point x="166" y="405" type="line"/>
    </contour>
  </outline>
</glyph>
<glyph name="D" format="1">
  <advance width="611.3778596365235"/>
  <unicode hex="0044"/>
  <outline>
    <contour>
      <point x="10" y="0" type="line"/>
      <point x="156" y="0" type="line"/>
      <point x="303" y="690" type="line"/>
      <point x="157" y="690" type="line"/>
    </contour>
    <contour>
      <point x="77" y="0" type="line"/>
      <point x="216" y="0" type="line" smooth="yes"/>
      <point x="421" y="0"/>
      <point x="599" y="188"/>
      <point x="599" y="434" type="curve"/>
      <point x="599" y="591"/>
      <point x="507" y="690"/>
      <point x="370" y="690" type="curve" smooth="yes"/>
      <point x="225" y="690" type="line"/>
      <point x="193" y="556" type="line"/>
      <point x="336" y="556" type="line" smooth="yes"/>
      <point x="406" y="556"/>
      <point x="448" y="503"/>
      <point x="448" y="414" type="curve"/>
      <point x="441" y="258"/>
      <point x="339" y="134"/>
      <point x="236" y="134" type="curve" smooth="yes"/>
      <point x="109" y="134" type="line"/>
    </contour>
    <contour>
      <point x="362" y="690" type="move" name="top"/>
    </contour>
  </outline>
</glyph>
<glyph name="E" format="1">
  <advance width="537.0"/>
  <unicode hex="0045"/>
  <outline>
    <contour>
      <point x="10" y="0" type="line"/>
      <point x="156" y="0" type="line"/>
      <point x="303" y="690" type="line"/>
      <point x="157" y="690" type="line"/>
    </contour>
    <contour>
      <point x="79" y="0" type="line"/>
      <point x="432" y="0" type="line"/>
      <point x="460" y="134" type="line"/>
      <point x="107" y="134" type="line"/>
    </contour>
    <contour>
      <point x="139" y="285" type="line"/>
      <point x="448" y="285" type="line"/>
      <point x="474" y="411" type="line"/>
      <point x="165" y="411" type="line"/>
    </contour>
    <contour>
      <point x="196" y="556" type="line"/>
      <point x="545" y="556" type="line"/>
      <point x="574" y="690" type="line"/>
      <point x="225" y="690" type="line"/>
    </contour>
    <contour>
      <point x="356" y="690" type="move" name="top"/>
    </contour>
    <contour>
      <point x="322" y="0" type="move" name="ogonek"/>
    </contour>
    <contour>
      <point x="226" y="0" type="move" name="bottom"/>
    </contour>
  </outline>
</glyph>
<glyph name="G" format="1">
  <advance width="595.7829185047282"/>
  <unicode hex="0047"/>
  <outline>
    <contour>
      <point x="38" y="243" type="curve"/>
      <point x="32" y="85"/>
      <point x="128" y="-12"/>
      <point x="275" y="-12" type="curve"/>
      <point x="355" y="-12"/>
      <point x="443" y="26"/>
      <point x="504" y="81" type="curve"/>
      <point x="420" y="163" type="line"/>
      <point x="390" y="137"/>
      <point x="342" y="115"/>
      <point x="302" y="115" type="curve"/>
      <point x="229" y="115"/>
      <point x="185" y="164"/>
      <point x="189" y="258" type="curve"/>
      <point x="189" y="444"/>
      <point x="284" y="563"/>
      <point x="380" y="563" type="curve"/>
      <point x="420" y="563"/>
      <point x="458" y="546"/>
      <point x="486" y="514" type="curve"/>
      <point x="590" y="623" type="line"/>
      <point x="537" y="678"/>
      <point x="471" y="702"/>
      <point x="408" y="702" type="curve"/>
      <point x="212" y="702"/>
      <point x="38" y="503"/>
    </contour>
    <contour>
      <point x="296" y="251" type="line"/>
      <point x="478" y="251" type="line"/>
      <point x="508" y="378" type="line"/>
      <point x="323" y="378" type="line"/>
    </contour>
    <contour>
      <point x="364" y="71" type="line"/>
      <point x="504" y="81" type="line"/>
      <point x="567" y="378" type="line"/>
      <point x="429" y="378" type="line"/>
    </contour>
    <contour>
      <point x="399" y="690" type="move" name="top"/>
    </contour>
    <contour>
      <point x="257" y="0" type="move" name="bottom"/>
    </contour>
  </outline>
</glyph>
<glyph name="H" format="1">
  <advance width="641.3359724476848"/>
  <unicode hex="0048"/>
  <outline>
    <contour>
      <point x="10" y="0" type="line"/>
      <point x="156" y="0" type="line"/>
      <point x="303" y="690" type="line"/>
      <point x="157" y="690" type="line"/>
    </contour>
    <contour>
      <point x="136" y="281" type="line"/>
      <point x="502" y="281" type="line"/>
      <point x="530" y="415" type="line"/>
      <point x="164" y="415" type="line"/>
    </contour>
    <contour>
      <point x="365" y="0" type="line"/>
      <point x="511" y="0" type="line"/>
      <point x="658" y="690" type="line"/>
      <point x="512" y="690" type="line"/>
    </contour>
    <contour>
      <point x="409" y="690" type="move" name="top"/>
    </contour>
  </outline>
</glyph>
<glyph name="I" format="1">
  <advance width="413.5559954079475"/>
  <unicode hex="0049"/>
  <outline>
    <contour>
      <point x="0" y="0" type="line"/>
      <point x="293" y="0" type="line"/>
      <point x="317" y="115" type="line"/>
      <point x="24" y="115" type="line"/>
    </contour>
    <contour>
      <point x="74" y="0" type="line"/>
      <point x="219" y="0" type="line"/>
      <point x="366" y="690" type="line"/>
      <point x="221" y="690" type="line"/>
    </contour>
    <contour>
      <point x="122" y="575" type="line"/>
      <point x="415" y="575" type="line"/>
      <point x="440" y="690" type="line"/>
      <point x="147" y="690" type="line"/>
    </contour>
    <contour>
      <point x="295" y="690" type="move" name="top"/>
    </contour>
    <contour>
      <point x="74" y="0" type="move" name="ogonek"/>
    </contour>
    <contour>
      <point x="147" y="0" type="move" name="bottom"/>
    </contour>
  </outline>
</glyph>
<glyph name="J" format="1">
  <advance width="471.34875551418463"/>
  <unicode hex="004A"/>
  <outline>
    <contour>
      <point x="-35" y="65" type="line"/>
      <point x="12" y="15"/>
      <point x="71" y="-12"/>
      <point x="147" y="-12" type="curve"/>
      <point x="265" y="-12"/>
      <point x="363" y="63"/>
      <point x="400" y="237" type="curve" smooth="yes"/>
      <point x="497" y="690" type="line"/>
      <point x="352" y="690" type="line"/>
      <point x="261" y="262" type="line" smooth="yes"/>
      <point x="241" y="166"/>
      <point x="201" y="123"/>
      <point x="144" y="123" type="curve"/>
      <point x="114" y="123"/>
      <point x="78" y="141"/>
      <point x="52" y="171" type="curve"/>
    </contour>
    <contour>
      <point x="190" y="575" type="line"/>
      <point x="423" y="575" type="line"/>
      <point x="448" y="690" type="line"/>
      <point x="215" y="690" type="line"/>
    </contour>
    <contour>
      <point x="353" y="690" type="move" name="top"/>
    </contour>
  </outline>
</glyph>
<glyph name="K" format="1">
  <advance width="568.0"/>
  <unicode hex="004B"/>
  <outline>
    <contour>
      <point x="10" y="0" type="line"/>
      <point x="156" y="0" type="line"/>
      <point x="303" y="690" type="line"/>
      <point x="157" y="690" type="line"/>
    </contour>
    <contour>
      <point x="128" y="121" type="line"/>
      <point x="644" y="690" type="line"/>
      <point x="465" y="690" type="line"/>
      <point x="172" y="324" type="line"/>
    </contour>
    <contour>
      <point x="259" y="296" type="line"/>
      <point x="351" y="0" type="line"/>
      <point x="510" y="0" type="line"/>
      <point x="362" y="406" type="line"/>
    </contour>
    <contour>
      <point x="264" y="0" type="move" name="bottom"/>
    </contour>
  </outline>
</glyph>
<glyph name="L" format="1">
  <advance width="507.0"/>
  <unicode hex="004C"/>
  <outline>
    <contour>
      <point x="10" y="0" type="line"/>
      <point x="156" y="0" type="line"/>
      <point x="303" y="690" type="line"/>
      <point x="157" y="690" type="line"/>
    </contour>
    <contour>
      <point x="79" y="0" type="line"/>
      <point x="417" y="0" type="line"/>
      <point x="445" y="134" type="line"/>
      <point x="107" y="134" type="line"/>
    </contour>
    <contour>
      <point x="231" y="690" type="move" name="top"/>
    </contour>
    <contour>
      <point x="414" y="680" type="move" name="caron.alt"/>
    </contour>
    <contour>
      <point x="232" y="0" type="move" name="bottom"/>
    </contour>
  </outline>
</glyph>
<glyph name="N" format="1">
  <advance width="638.3359724476848"/>
  <unicode hex="004E"/>
  <outline>
    <contour>
      <point x="10" y="0" type="line"/>
      <point x="140" y="0" type="line"/>
      <point x="289" y="690" type="line"/>
      <point x="157" y="690" type="line"/>
    </contour>
    <contour>
      <point x="210" y="690" type="line"/>
      <point x="339" y="0" type="line"/>
      <point x="467" y="0" type="line"/>
      <point x="338" y="690" type="line"/>
    </contour>
    <contour>
      <point x="378" y="0" type="line"/>
      <point x="508" y="0" type="line"/>
      <point x="655" y="690" type="line"/>
      <point x="525" y="690" type="line"/>
    </contour>
    <contour>
      <point x="396" y="690" type="move" name="top"/>
    </contour>
    <contour>
      <point x="277" y="0" type="move" name="bottom"/>
    </contour>
  </outline>
</glyph>
<glyph name="Q" format="1">
  <advance width="626.7581071566487"/>
  <unicode hex="0051"/>
  <outline>
    <contour>
      <point x="286" y="9" type="line"/>
      <point x="295" y="-114"/>
      <point x="353" y="-170"/>
      <point x="489" y="-170" type="curve"/>
      <point x="519" y="-26" type="line"/>
      <point x="441" y="-26"/>
      <point x="414" y="-8"/>
      <point x="404" y="45" type="curve"/>
    </contour>
    <contour>
      <point x="42" y="243" type="curve"/>
      <point x="42" y="91"/>
      <point x="127" y="-10"/>
      <point x="254" y="-10" type="curve"/>
      <point x="444" y="-10"/>
      <point x="612" y="187"/>
      <point x="612" y="448" type="curve"/>
      <point x="612" y="599"/>
      <point x="527" y="700"/>
      <point x="401" y="700" type="curve"/>
      <point x="210" y="700"/>
      <point x="42" y="503"/>
    </contour>
    <contour>
      <point x="193" y="258" type="curve"/>
      <point x="193" y="444"/>
      <point x="282" y="563"/>
      <point x="373" y="563" type="curve"/>
      <point x="428" y="563"/>
      <point x="461" y="520"/>
      <point x="461" y="433" type="curve"/>
      <point x="461" y="246"/>
      <point x="371" y="127"/>
      <point x="281" y="127" type="curve"/>
      <point x="225" y="127"/>
      <point x="193" y="170"/>
    </contour>
  </outline>
</glyph>
<glyph name="R" format="1">
  <advance width="559.0"/>
  <unicode hex="0052"/>
  <outline>
    <contour>
      <point x="10" y="0" type="line"/>
      <point x="156" y="0" type="line"/>
      <point x="303" y="690" type="line"/>
      <point x="157" y="690" type="line"/>
    </contour>
    <contour>
      <point x="127" y="243" type="line"/>
      <point x="263" y="243" type="line" smooth="yes"/>
      <point x="428" y="243"/>
      <point x="547" y="352"/>
      <point x="547" y="498" type="curve"/>
      <point x="547" y="618"/>
      <point x="473" y="690"/>
      <point x="351" y="690" type="curve" smooth="yes"/>
      <point x="225" y="690" type="line"/>
      <point x="193" y="558" type="line"/>
      <point x="311" y="558" type="line" smooth="yes"/>
      <point x="372" y="558"/>
      <point x="398" y="528"/>
      <point x="398" y="483" type="curve"/>
      <point x="398" y="412"/>
      <point x="349" y="365"/>
      <point x="274" y="365" type="curve" smooth="yes"/>
      <point x="159" y="365" type="line"/>
    </contour>
    <contour>
      <point x="247" y="290" type="line"/>
      <point x="318" y="0" type="line"/>
      <point x="472" y="0" type="line"/>
      <point x="383" y="290" type="line"/>
    </contour>
    <contour>
      <point x="348" y="690" type="move" name="top"/>
    </contour>
    <contour>
      <point x="237" y="0" type="move" name="bottom"/>
    </contour>
  </outline>
</glyph>
<glyph name="T" format="1">
  <advance width="498.33597244768475"/>
  <unicode hex="0054"/>
  <outline>
    <contour>
      <point x="78" y="556" type="line"/>
      <point x="536" y="556" type="line"/>
      <point x="565" y="690" type="line"/>
      <point x="107" y="690" type="line"/>
    </contour>
    <contour>
      <point x="116" y="0" type="line"/>
      <point x="262" y="0" type="line"/>
      <point x="409" y="690" type="line"/>
      <point x="263" y="690" type="line"/>
    </contour>
    <contour>
      <point x="337" y="690" type="move" name="top"/>
    </contour>
    <contour>
      <point x="192" y="0" type="move" name="bottom"/>
    </contour>
  </outline>
</glyph>
<glyph name="U" format="1">
  <advance width="613.3359724476848"/>
  <unicode hex="0055"/>
  <outline>
    <contour>
      <point x="54" y="206" type="curve" smooth="yes"/>
      <point x="54" y="82"/>
      <point x="138" y="-12"/>
      <point x="266" y="-12" type="curve"/>
      <point x="403" y="-12"/>
      <point x="507" y="68"/>
      <point x="548" y="259" type="curve" smooth="yes"/>
      <point x="640" y="690" type="line"/>
      <point x="498" y="690" type="line"/>
      <point x="412" y="288" type="line" smooth="yes"/>
      <point x="386" y="165"/>
      <point x="339" y="125"/>
      <point x="284" y="125" type="curve"/>
      <point x="235" y="125"/>
      <point x="200" y="159"/>
      <point x="200" y="220" type="curve" smooth="yes"/>
      <point x="200" y="242"/>
      <point x="203" y="267"/>
      <point x="207" y="288" type="curve" smooth="yes"/>
      <point x="293" y="690" type="line"/>
      <point x="147" y="690" type="line"/>
      <point x="65" y="307" type="line" smooth="yes"/>
      <point x="57" y="269"/>
      <point x="54" y="237"/>
    </contour>
    <contour>
      <point x="396" y="690" type="move" name="top"/>
    </contour>
    <contour>
      <point x="295" y="0" type="move" name="ogonek"/>
    </contour>
    <contour>
      <point x="252" y="0" type="move" name="bottom"/>
    </contour>
  </outline>
</glyph>
<glyph name="V" format="1">
  <advance width="546.3359724476848"/>
  <unicode hex="0056"/>
  <outline>
    <contour>
      <point x="85" y="690" type="line"/>
      <point x="155" y="0" type="line"/>
      <point x="219" y="0" type="line"/>
      <point x="259" y="152" type="line"/>
      <point x="231" y="690" type="line"/>
    </contour>
    <contour>
      <point x="202" y="0" type="line"/>
      <point x="268" y="0" type="line"/>
      <point x="636" y="690" type="line"/>
      <point x="481" y="690" type="line"/>
      <point x="229" y="152" type="line"/>
    </contour>
  </outline>
</glyph>
<glyph name="W" format="1">
  <advance width="818.3359724476848"/>
  <unicode hex="0057"/>
  <outline>
    <contour>
      <point x="90" y="690" type="line"/>
      <point x="124" y="0" type="line"/>
      <point x="192" y="0" type="line"/>
      <point x="233" y="157" type="line"/>
      <point x="237" y="690" type="line"/>
    </contour>
    <contour>
      <point x="174" y="0" type="line"/>
      <point x="241" y="0" type="line"/>
      <point x="494" y="548" type="line"/>
      <point x="527" y="690" type="line"/>
      <point x="433" y="690" type="line"/>
      <point x="205" y="157" type="line"/>
    </contour>
    <contour>
      <point x="436" y="548" type="line"/>
      <point x="456" y="0" type="line"/>
      <point x="524" y="0" type="line"/>
      <point x="565" y="157" type="line"/>
      <point x="557" y="690" type="line"/>
      <point x="462" y="690" type="line"/>
    </contour>
    <contour>
      <point x="506" y="0" type="line"/>
      <point x="573" y="0" type="line"/>
      <point x="903" y="690" type="line"/>
      <point x="751" y="690" type="line"/>
      <point x="537" y="157" type="line"/>
    </contour>
    <contour>
      <point x="495" y="690" type="move" name="top"/>
    </contour>
  </outline>
</glyph>
<glyph name="Y" format="1">
  <advance width="568.3359724476848"/>
  <unicode hex="0059"/>
  <outline>
    <contour>
      <point x="89" y="690" type="line"/>
      <point x="217" y="261" type="line"/>
      <point x="291" y="261" type="line"/>
      <point x="319" y="392" type="line"/>
      <point x="247" y="690" type="line"/>
    </contour>
    <contour>
      <point x="150" y="0" type="line"/>
      <point x="296" y="0" type="line"/>
      <point x="358" y="291" type="line"/>
      <point x="212" y="291" type="line"/>
    </contour>
    <contour>
      <point x="272" y="261" type="line"/>
      <point x="339" y="261" type="line"/>
      <point x="653" y="690" type="line"/>
      <point x="479" y="690" type="line"/>
      <point x="289" y="392" type="line"/>
    </contour>
    <contour>
      <point x="364" y="690" type="move" name="top"/>
    </contour>
  </outline>
</glyph>
<glyph name="Z" format="1">
  <advance width="543.517420736217"/>
  <unicode hex="005A"/>
  <outline>
    <contour>
      <point x="-11" y="0" type="line"/>
      <point x="436" y="0" type="line"/>
      <point x="464" y="134" type="line"/>
      <point x="73" y="134" type="line"/>
      <point x="10" y="100" type="line"/>
    </contour>
    <contour>
      <point x="10" y="100" type="line"/>
      <point x="103" y="0" type="line"/>
      <point x="550" y="590" type="line"/>
      <point x="458" y="690" type="line"/>
    </contour>
    <contour>
      <point x="114" y="556" type="line"/>
      <point x="489" y="556" type="line"/>
      <point x="550" y="590" type="line"/>
      <point x="572" y="690" type="line"/>
      <point x="143" y="690" type="line"/>
    </contour>
    <contour>
      <point x="345" y="690" type="move" name="top"/>
    </contour>
  </outline>
</glyph>
<glyph name="bracketleft" format="1">
  <advance width="278.19739829225387"/>
  <unicode hex="005B"/>
  <outline>
    <contour>
      <point x="-54" y="-299" type="line"/>
      <point x="74" y="-299" type="line"/>
      <point x="315" y="834" type="line"/>
      <point x="187" y="834" type="line"/>
    </contour>
    <contour>
      <point x="-24" y="-299" type="line"/>
      <point x="199" y="-299" type="line"/>
      <point x="226" y="-175" type="line"/>
      <point x="3" y="-175" type="line"/>
    </contour>
    <contour>
      <point x="191" y="710" type="line"/>
      <point x="414" y="710" type="line"/>
      <point x="440" y="834" type="line"/>
      <point x="217" y="834" type="line"/>
    </contour>
  </outline>
</glyph>
<glyph name="backslash" format="1">
  <advance width="339.37669685010064"/>
  <unicode hex="005C"/>
  <outline>
    <contour>
      <point x="93" y="720" type="line"/>
      <point x="143" y="-30" type="line"/>
      <point x="273" y="-30" type="line"/>
      <point x="224" y="720" type="line"/>
    </contour>
  </outline>
</glyph>
<glyph name="bracketright" format="1">
  <advance width="278.72782756720153"/>
  <unicode hex="005D"/>
  <outline>
    <contour>
      <point x="-169" y="-299" type="line"/>
      <point x="54" y="-299" type="line"/>
      <point x="81" y="-175" type="line"/>
      <point x="-142" y="-175" type="line"/>
    </contour>
    <contour>
      <point x="-43" y="-299" type="line"/>
      <point x="85" y="-299" type="line"/>
      <point x="326" y="834" type="line"/>
      <point x="198" y="834" type="line"/>
    </contour>
    <contour>
      <point x="46" y="710" type="line"/>
      <point x="269" y="710" type="line"/>
      <point x="295" y="834" type="line"/>
      <point x="72" y="834" type="line"/>
    </contour>
  </outline>
</glyph>
<glyph name="asciicircum" format="1">
  <advance width="500"/>
  <unicode hex="005E"/>
  <outline>
    <contour>
      <point x="30.0" y="245" type="line"/>
      <point x="166.0" y="245" type="line"/>
      <point x="327.0" y="575" type="line"/>
      <point x="358.0" y="690" type="line"/>
      <point x="264.0" y="690" type="line"/>
    </contour>
    <contour>
      <point x="308" y="690" type="line"/>
      <point x="286.0" y="575" type="line"/>
      <point x="322.0" y="245" type="line"/>
      <point x="454.0" y="245" type="line"/>
      <point x="392.0" y="690" type="line"/>
    </contour>
  </outline>
</glyph>
<glyph name="underscore" format="1">
  <advance width="390.0"/>
  <unicode hex="005F"/>
  <outline>
    <contour>
      <point x="-87" y="-126" type="line"/>
      <point x="303" y="-126" type="line"/>
      <point x="330" y="0" type="line"/>
      <point x="-60" y="0" type="line"/>
    </contour>
  </outline>
</glyph>
<glyph name="grave" format="1">
  <advance width="500"/>
  <unicode hex="0060"/>
  <outline>
    <contour>
      <point x="185" y="751" type="line"/>
      <point x="268" y="601" type="line"/>
      <point x="377" y="601" type="line"/>
      <point x="319" y="751" type="line"/>
    </contour>
    <contour>
      <point x="302" y="525" type="move" name="_top"/>
    </contour>
  </outline>
</glyph>
<glyph name="c" format="1">
  <advance width="410.359388849999"/>
  <unicode hex="0063"/>
  <outline>
    <contour>
      <point x="138" y="537"/>
      <point x="15" y="370"/>
      <point x="15" y="190" type="curve" smooth="yes"/>
      <point x="15" y="71"/>
      <point x="85" y="-12"/>
      <point x="203" y="-12" type="curve" smooth="yes"/>
      <point x="255" y="-12"/>
      <point x="300" y="4"/>
      <point x="343" y="28" type="curve"/>
      <point x="312" y="141" type="line"/>
      <point x="291" y="128"/>
      <point x="264" y="119"/>
      <point x="240" y="119" type="curve" smooth="yes"/>
      <point x="193" y="119"/>
      <point x="160" y="153"/>
      <point x="160" y="215" type="curve" smooth="yes"/>
      <point x="160" y="303"/>
      <point x="210" y="406"/>
      <point x="301" y="406" type="curve" smooth="yes"/>
      <point x="325" y="406"/>
      <point x="348" y="397"/>
      <point x="364" y="384" type="curve"/>
      <point x="443" y="497" type="line"/>
      <point x="410" y="521"/>
      <point x="372" y="537"/>
      <point x="320" y="537" type="curve" smooth="yes"/>
    </contour>
    <contour>
      <point x="308.0" y="526.0" type="move" name="top"/>
    </contour>
    <contour>
      <point x="183.0" y="0.0" type="move" name="bottom"/>
    </contour>
  </outline>
</glyph>
<glyph name="d" format="1">
  <advance width="522.0"/>
  <unicode hex="0064"/>
  <outline>
    <contour>
      <point x="16" y="178" type="curve"/>
      <point x="16" y="63"/>
      <point x="65" y="-12"/>
      <point x="149" y="-12" type="curve"/>
      <point x="208" y="-12"/>
      <point x="265" y="31"/>
      <point x="302" y="101" type="curve"/>
      <point x="286" y="111" type="line"/>
      <point x="283" y="0" type="line"/>
      <point x="414" y="0" type="line"/>
      <point x="416" y="50" type="line" smooth="yes"/>
      <point x="417" y="79"/>
      <point x="418" y="96"/>
      <point x="424" y="125" type="curve" smooth="yes"/>
      <point x="553" y="735" type="line"/>
      <point x="413" y="715" type="line"/>
      <point x="324" y="298" type="line" smooth="yes"/>
      <point x="300" y="184"/>
      <point x="243" y="123"/>
      <point x="203" y="123" type="curve"/>
      <point x="177" y="123"/>
      <point x="158" y="144"/>
      <point x="158" y="199" type="curve"/>
      <point x="158" y="300"/>
      <point x="205" y="412"/>
      <point x="278" y="412" type="curve"/>
      <point x="309" y="412"/>
      <point x="338" y="400"/>
      <point x="362" y="363" type="curve"/>
      <point x="385" y="485" type="line"/>
      <point x="356" y="519"/>
      <point x="313" y="537"/>
      <point x="269" y="537" type="curve"/>
      <point x="136" y="537"/>
      <point x="16" y="356"/>
    </contour>
    <contour>
      <point x="602" y="720" type="move" name="caron.alt"/>
    </contour>
  </outline>
</glyph>
<glyph name="e" format="1">
  <advance width="466.4591628614687"/>
  <unicode hex="0065"/>
  <outline>
    <contour>
      <point x="16" y="183" type="curve" smooth="yes"/>
      <point x="16" y="66"/>
      <point x="79" y="-10"/>
      <point x="194" y="-10" type="curve" smooth="yes"/>
      <point x="261" y="-10"/>
      <point x="312" y="9"/>
      <point x="386" y="59" type="curve"/>
      <point x="335" y="166" type="line"/>
      <point x="299" y="138"/>
      <point x="254" y="118"/>
      <point x="216" y="118" type="curve" smooth="yes"/>
      <point x="174" y="118"/>
      <point x="158" y="150"/>
      <point x="158" y="207" type="curve" smooth="yes"/>
      <point x="158" y="299"/>
      <point x="204" y="414"/>
      <point x="274" y="414" type="curve" smooth="yes"/>
      <point x="297" y="414"/>
      <point x="313" y="397"/>
      <point x="313" y="376" type="curve"/>
      <point x="313" y="335"/>
      <point x="282" y="309"/>
      <point x="119" y="308" type="curve" smooth="yes"/>
      <point x="116" y="308"/>
      <point x="114" y="308"/>
      <point x="111" y="308" type="curve"/>
      <point x="109" y="214" type="line"/>
      <point x="115" y="214"/>
      <point x="122" y="214"/>
      <point x="128" y="214" type="curve" smooth="yes"/>
      <point x="322" y="214"/>
      <point x="447" y="265"/>
      <point x="447" y="393" type="curve"/>
      <point x="447" y="473"/>
      <point x="389" y="535"/>
      <point x="296" y="535" type="curve"/>
      <point x="136" y="535"/>
      <point x="16" y="372"/>
    </contour>
    <contour>
      <point x="293.0" y="525.0" type="move" name="top"/>
    </contour>
    <contour>
      <point x="244.0" y="0.0" type="move" name="ogonek"/>
    </contour>
    <contour>
      <point x="194.0" y="0.0" type="move" name="bottom"/>
    </contour>
  </outline>
</glyph>
<glyph name="f" format="1">
  <advance width="332.87228465261427"/>
  <unicode hex="0066"/>
  <outline>
    <contour>
      <point x="29" y="0" type="line"/>
      <point x="166" y="0" type="line"/>
      <point x="277" y="522" type="line" smooth="yes"/>
      <point x="289" y="577"/>
      <point x="312" y="601"/>
      <point x="349" y="601" type="curve"/>
      <point x="364" y="601"/>
      <point x="381" y="598"/>
      <point x="397" y="589" type="curve"/>
      <point x="441" y="709" type="line"/>
      <point x="414" y="721"/>
      <point x="380" y="730"/>
      <point x="343" y="730" type="curve" smooth="yes"/>
      <point x="241" y="730"/>
      <point x="171" y="668"/>
      <point x="143" y="536" type="curve" smooth="yes"/>
    </contour>
    <contour>
      <point x="40" y="407" type="line"/>
      <point x="362" y="407" type="line"/>
      <point x="387" y="525" type="line"/>
      <point x="65" y="525" type="line"/>
    </contour>
  </outline>
</glyph>
<glyph name="g" format="1">
  <advance width="516.4349547248489"/>
  <unicode hex="0067"/>
  <outline>
    <contour>
      <point x="-37" y="-154" type="line"/>
      <point x="13" y="-183"/>
      <point x="68" y="-195"/>
      <point x="130" y="-195" type="curve"/>
      <point x="271" y="-195"/>
      <point x="371" y="-124"/>
      <point x="407" y="45" type="curve"/>
      <point x="509" y="525" type="line"/>
      <point x="383" y="525" type="line"/>
      <point x="364" y="483" type="line"/>
      <point x="324" y="298" type="line"/>
      <point x="300.0330578512397" y="200.4739884393063"/>
      <point x="246" y="153"/>
      <point x="211" y="153" type="curve"/>
      <point x="182" y="153"/>
      <point x="163" y="172"/>
      <point x="163" y="223" type="curve"/>
      <point x="163" y="316"/>
      <point x="208.04166666666669" y="410.0"/>
      <point x="278" y="410" type="curve" smooth="yes"/>
      <point x="309" y="410"/>
      <point x="338" y="398"/>
      <point x="362" y="361" type="curve"/>
      <point x="385" y="483" type="line"/>
      <point x="356" y="517"/>
      <point x="313" y="535"/>
      <point x="269" y="535" type="curve" smooth="yes"/>
      <point x="138.62845849802372" y="535.0"/>
      <point x="21" y="372"/>
      <point x="21" y="206" type="curve" smooth="yes"/>
      <point x="21" y="91"/>
      <point x="70" y="18"/>
      <point x="159" y="18" type="curve"/>
      <point x="211" y="18"/>
      <point x="266.2091503267974" y="46.765765765765764"/>
      <point x="302" y="101" type="curve"/>
      <point x="285" y="111" type="line"/>
      <point x="270" y="42" type="line" smooth="yes"/>
      <point x="255" y="-28"/>
      <point x="210" y="-62"/>
      <point x="141" y="-62" type="curve"/>
      <point x="98" y="-62"/>
      <point x="53" y="-48"/>
      <point x="18" y="-26" type="curve"/>
    </contour>
    <contour>
      <point x="313" y="525" type="move" name="top"/>
    </contour>
  </outline>
</glyph>
<glyph name="h" format="1">
  <advance width="544.1320939052986"/>
  <unicode hex="0068"/>
  <outline>
    <contour>
      <point x="5" y="0" type="line"/>
      <point x="142" y="0" type="line"/>
      <point x="190" y="228" type="line" smooth="yes"/>
      <point x="215" y="348"/>
      <point x="269" y="398"/>
      <point x="316" y="398" type="curve"/>
      <point x="344" y="398"/>
      <point x="361" y="381"/>
      <point x="361" y="349" type="curve" smooth="yes"/>
      <point x="361" y="336"/>
      <point x="359" y="322"/>
      <point x="357" y="312" type="curve" smooth="yes"/>
      <point x="291" y="0" type="line"/>
      <point x="428" y="0" type="line"/>
      <point x="494" y="310" type="line" smooth="yes"/>
      <point x="499" y="332"/>
      <point x="501" y="355"/>
      <point x="501" y="378" type="curve"/>
      <point x="501" y="475"/>
      <point x="451" y="535"/>
      <point x="373" y="535" type="curve"/>
      <point x="306" y="535"/>
      <point x="253" y="495"/>
      <point x="217" y="421" type="curve"/>
      <point x="230" y="415" type="line"/>
      <point x="298" y="735" type="line"/>
      <point x="152" y="715" type="line"/>
    </contour>
    <contour>
      <point x="226" y="720" type="move" name="top"/>
    </contour>
  </outline>
</glyph>
<glyph name="i" format="1">
  <advance width="260.99804976951873"/>
  <unicode hex="0069"/>
  <outline>
    <contour>
      <point x="2" y="0" type="line"/>
      <point x="139" y="0" type="line"/>
      <point x="251" y="525" type="line"/>
      <point x="114" y="525" type="line"/>
    </contour>
    <contour>
      <point x="127" y="663" type="curve" smooth="yes"/>
      <point x="127" y="620"/>
      <point x="157" y="588"/>
      <point x="199" y="588" type="curve"/>
      <point x="254" y="588"/>
      <point x="301" y="634"/>
      <point x="301" y="694" type="curve" smooth="yes"/>
      <point x="301" y="737"/>
      <point x="271" y="769"/>
      <point x="228" y="769" type="curve"/>
      <point x="174" y="769"/>
      <point x="127" y="723"/>
    </contour>
    <contour>
      <point x="2" y="0" type="move" name="ogonek"/>
    </contour>
    <contour>
      <point x="71" y="0" type="move" name="bottom"/>
    </contour>
  </outline>
</glyph>
<glyph name="k" format="1">
  <advance width="483.0"/>
  <unicode hex="006B"/>
  <outline>
    <contour>
      <point x="0" y="0" type="line"/>
      <point x="137" y="0" type="line"/>
      <point x="293" y="735" type="line"/>
      <point x="152" y="715" type="line"/>
    </contour>
    <contour>
      <point x="101" y="87" type="line"/>
      <point x="531" y="526" type="line"/>
      <point x="350" y="526" type="line"/>
      <point x="143" y="279" type="line"/>
    </contour>
    <contour>
      <point x="200" y="260" type="line"/>
      <point x="280" y="0" type="line"/>
      <point x="426" y="0" type="line"/>
      <point x="300" y="355" type="line"/>
    </contour>
    <contour>
      <point x="218" y="0" type="move" name="bottom"/>
    </contour>
  </outline>
</glyph>
<glyph name="l" format="1">
  <advance width="257.0"/>
  <unicode hex="006C"/>
  <outline>
    <contour>
      <point x="0" y="0" type="line"/>
      <point x="137" y="0" type="line"/>
      <point x="293" y="735" type="line"/>
      <point x="152" y="715" type="line"/>
    </contour>
    <contour>
      <point x="221" y="720" type="move" name="top"/>
    </contour>
    <contour>
      <point x="340" y="720" type="move" name="caron.alt"/>
    </contour>
    <contour>
      <point x="70" y="0" type="move" name="bottom"/>
    </contour>
  </outline>
</glyph>
<glyph name="n" format="1">
  <advance width="544.1320939052986"/>
  <unicode hex="006E"/>
  <outline>
    <contour>
      <point x="5" y="0" type="line"/>
      <point x="142" y="0" type="line"/>
      <point x="190" y="228" type="line" smooth="yes"/>
      <point x="215" y="348"/>
      <point x="269" y="400"/>
      <point x="316" y="400" type="curve"/>
      <point x="344" y="400"/>
      <point x="361" y="381"/>
      <point x="361" y="349" type="curve" smooth="yes"/>
      <point x="361" y="336"/>
      <point x="359" y="322"/>
      <point x="357" y="312" type="curve" smooth="yes"/>
      <point x="291" y="0" type="line"/>
      <point x="428" y="0" type="line"/>
      <point x="494" y="310" type="line" smooth="yes"/>
      <point x="499" y="332"/>
      <point x="501" y="355"/>
      <point x="501" y="378" type="curve"/>
      <point x="501" y="475"/>
      <point x="451" y="537"/>
      <point x="373" y="537" type="curve"/>
      <point x="306" y="537"/>
      <point x="250" y="495"/>
      <point x="214" y="421" type="curve"/>
      <point x="229" y="415" type="line"/>
      <point x="232" y="525" type="line"/>
      <point x="100" y="525" type="line"/>
      <point x="98" y="475" type="line" smooth="yes"/>
      <point x="97" y="447"/>
      <point x="95" y="426"/>
      <point x="90" y="401" type="curve" smooth="yes"/>
    </contour>
    <contour>
      <point x="325" y="525" type="move" name="top"/>
    </contour>
    <contour>
      <point x="227" y="0" type="move" name="bottom"/>
    </contour>
  </outline>
</glyph>
<glyph name="r" format="1">
  <advance width="359.6445698215281"/>
  <unicode hex="0072"/>
  <outline>
    <contour>
      <point x="5" y="0" type="line"/>
      <point x="142" y="0" type="line"/>
      <point x="191" y="231" type="line" smooth="yes"/>
      <point x="215" y="343"/>
      <point x="269" y="381"/>
      <point x="367" y="388" type="curve"/>
      <point x="399" y="537" type="line"/>
      <point x="326" y="537"/>
      <point x="254" y="489"/>
      <point x="214" y="404" type="curve"/>
      <point x="228" y="400" type="line"/>
      <point x="232" y="525" type="line"/>
      <point x="100" y="525" type="line"/>
      <point x="98" y="475" type="line" smooth="yes"/>
      <point x="97" y="447"/>
      <point x="95" y="426"/>
      <point x="90" y="401" type="curve" smooth="yes"/>
    </contour>
    <contour>
      <point x="239" y="525" type="move" name="top"/>
    </contour>
    <contour>
      <point x="75.0" y="0.0" type="move" name="bottom"/>
    </contour>
  </outline>
</glyph>
<glyph name="t" format="1">
  <advance width="382.29954750663984"/>
  <unicode hex="0074"/>
  <outline>
    <contour>
      <point x="40" y="407" type="line"/>
      <point x="369" y="407" type="line"/>
      <point x="394" y="525" type="line"/>
      <point x="65" y="525" type="line"/>
    </contour>
    <contour>
      <point x="66" y="142" type="curve"/>
      <point x="66" y="44"/>
      <point x="116" y="-10"/>
      <point x="208" y="-10" type="curve"/>
      <point x="235" y="-10"/>
      <point x="272" y="-2"/>
      <point x="298" y="10" type="curve"/>
      <point x="296" y="138" type="line"/>
      <point x="278" y="129"/>
      <point x="257" y="124"/>
      <point x="243" y="124" type="curve"/>
      <point x="217" y="124"/>
      <point x="204" y="139"/>
      <point x="204" y="165" type="curve"/>
      <point x="204" y="175"/>
      <point x="205" y="182"/>
      <point x="207" y="191" type="curve" smooth="yes"/>
      <point x="307" y="661" type="line"/>
      <point x="165" y="641" type="line"/>
      <point x="72" y="200" type="line" smooth="yes"/>
      <point x="68" y="179"/>
      <point x="66" y="161"/>
    </contour>
    <contour>
      <point x="463" y="720" type="move" name="caron.alt"/>
    </contour>
    <contour>
      <point x="172" y="0" type="move" name="bottom"/>
    </contour>
  </outline>
</glyph>
<glyph name="w" format="1">
  <advance width="698.1952485615684"/>
  <unicode hex="0077"/>
  <outline>
    <contour>
      <point x="71" y="525" type="line"/>
      <point x="107" y="0" type="line"/>
      <point x="186" y="0" type="line"/>
      <point x="209" y="112" type="line"/>
      <point x="210" y="525" type="line"/>
    </contour>
    <contour>
      <point x="136" y="0" type="line"/>
      <point x="213" y="0" type="line"/>
      <point x="386" y="355" type="line"/>
      <point x="422" y="525" type="line"/>
      <point x="347" y="525" type="line"/>
      <point x="159" y="112" type="line"/>
    </contour>
    <contour>
      <point x="338" y="355" type="line"/>
      <point x="362" y="0" type="line"/>
      <point x="447" y="0" type="line"/>
      <point x="470" y="112" type="line"/>
      <point x="453" y="525" type="line"/>
      <point x="374" y="525" type="line"/>
    </contour>
    <contour>
      <point x="397" y="0" type="line"/>
      <point x="474" y="0" type="line"/>
      <point x="732" y="525" type="line"/>
      <point x="585" y="525" type="line"/>
      <point x="420" y="112" type="line"/>
    </contour>
    <contour>
      <point x="398" y="525" type="move" name="top"/>
    </contour>
  </outline>
</glyph>
<glyph name="y" format="1">
  <advance width="443.19524856156835"/>
  <unicode hex="0079"/>
  <outline>
    <contour>
      <point x="-80" y="-181" type="line"/>
      <point x="-63" y="-190"/>
      <point x="-36" y="-197"/>
      <point x="-11" y="-197" type="curve"/>
      <point x="81" y="-197"/>
      <point x="144" y="-141"/>
      <point x="221" y="4" type="curve" smooth="yes"/>
      <point x="497" y="525" type="line"/>
      <point x="347" y="525" type="line"/>
      <point x="153" y="86" type="line"/>
      <point x="111" y="49" type="line"/>
      <point x="74" y="-37"/>
      <point x="43" y="-68"/>
      <point x="1" y="-68" type="curve"/>
      <point x="-13" y="-68"/>
      <point x="-27" y="-65"/>
      <point x="-43" y="-58" type="curve"/>
    </contour>
    <contour>
      <point x="50" y="525" type="line"/>
      <point x="109" y="0" type="line"/>
      <point x="186" y="0" type="line"/>
      <point x="211" y="86" type="line"/>
      <point x="191" y="525" type="line"/>
    </contour>
    <contour>
      <point x="267" y="525" type="move" name="top"/>
    </contour>
  </outline>
</glyph>
<glyph name="z" format="1">
  <advance width="415.70576916126737"/>
  <unicode hex="007A"/>
  <outline>
    <contour>
      <point x="-33" y="0" type="line"/>
      <point x="328" y="0" type="line"/>
      <point x="353" y="119" type="line"/>
      <point x="47" y="119" type="line"/>
      <point x="-14" y="88" type="line"/>
    </contour>
    <contour>
      <point x="-14" y="88" type="line"/>
      <point x="80" y="0" type="line"/>
      <point x="411" y="437" type="line"/>
      <point x="316" y="525" type="line"/>
    </contour>
    <contour>
      <point x="63" y="406" type="line"/>
      <point x="350" y="406" type="line"/>
      <point x="411" y="437" type="line"/>
      <point x="430" y="525" type="line"/>
      <point x="87" y="525" type="line"/>
    </contour>
    <contour>
      <point x="246" y="525" type="move" name="top"/>
    </contour>
  </outline>
</glyph>
<glyph name="bar" format="1">
  <advance width="267.6996607590547"/>
  <unicode hex="007C"/>
  <outline>
    <contour>
      <point x="-36" y="-215" type="line"/>
      <point x="92" y="-215" type="line"/>
      <point x="291" y="720" type="line"/>
      <point x="163" y="720" type="line"/>
    </contour>
  </outline>
</glyph>
<glyph name="braceright" format="1">
  <advance width="307.832126512273"/>
  <unicode hex="007D"/>
  <outline>
    <contour>
      <point x="-89" y="-195" type="curve"/>
      <point x="-70" y="-280" type="line"/>
      <point x="89" y="-253"/>
      <point x="151" y="-154"/>
      <point x="151" y="-68" type="curve" smooth="yes"/>
      <point x="151" y="5"/>
      <point x="124" y="41"/>
      <point x="124" y="108" type="curve" smooth="yes"/>
      <point x="124" y="151"/>
      <point x="137" y="198"/>
      <point x="246" y="218" type="curve"/>
      <point x="267" y="316" type="line"/>
      <point x="196" y="330"/>
      <point x="182" y="351"/>
      <point x="182" y="377" type="curve" smooth="yes"/>
      <point x="182" y="451"/>
      <point x="299" y="554"/>
      <point x="299" y="656" type="curve"/>
      <point x="299" y="732"/>
      <point x="243" y="793"/>
      <point x="147" y="815" type="curve"/>
      <point x="105" y="730" type="line"/>
      <point x="156" y="706"/>
      <point x="172" y="688"/>
      <point x="172" y="644" type="curve" smooth="yes"/>
      <point x="172" y="572"/>
      <point x="64" y="464"/>
      <point x="64" y="377" type="curve" smooth="yes"/>
      <point x="64" y="326"/>
      <point x="94" y="284"/>
      <point x="151" y="270" type="curve"/>
      <point x="53" y="250"/>
      <point x="5" y="186"/>
      <point x="5" y="103" type="curve" smooth="yes"/>
      <point x="5" y="44"/>
      <point x="24" y="-5"/>
      <point x="24" y="-53" type="curve" smooth="yes"/>
      <point x="24" y="-101"/>
      <point x="7" y="-160"/>
    </contour>
  </outline>
</glyph>
<glyph name="asciitilde" format="1">
  <advance width="500"/>
  <unicode hex="007E"/>
  <outline>
    <contour>
      <point x="59.0" y="289" type="curve"/>
      <point x="146.0" y="289" type="line"/>
      <point x="161.0" y="339"/>
      <point x="174.0" y="356"/>
      <point x="196.0" y="356" type="curve"/>
      <point x="233.0" y="356"/>
      <point x="259.0" y="284"/>
      <point x="334.0" y="284" type="curve" smooth="yes"/>
      <point x="409.0" y="284"/>
      <point x="457.0" y="341"/>
      <point x="482.0" y="471" type="curve"/>
      <point x="395.0" y="471" type="line"/>
      <point x="381.0" y="421"/>
      <point x="368.0" y="405"/>
      <point x="344.0" y="405" type="curve"/>
      <point x="307.0" y="405"/>
      <point x="281.0" y="476"/>
      <point x="208.0" y="476" type="curve" smooth="yes"/>
      <point x="142.0" y="476"/>
      <point x="84.0" y="419"/>
    </contour>
  </outline>
</glyph>
<glyph name="exclamdown" format="1">
  <advance width="303.6752355207185"/>
  <unicode hex="00A1"/>
  <outline>
    <contour>
      <point x="-17" y="-185" type="line"/>
      <point x="136" y="-185" type="line"/>
      <point x="175" y="0" type="line"/>
      <point x="207" y="261" type="line"/>
      <point x="103" y="261" type="line"/>
      <point x="22" y="0" type="line"/>
    </contour>
    <contour>
      <point x="95" y="425" type="curve" smooth="yes"/>
      <point x="95" y="380"/>
      <point x="126" y="347"/>
      <point x="170" y="347" type="curve"/>
      <point x="227" y="347"/>
      <point x="276" y="395"/>
      <point x="276" y="457" type="curve" smooth="yes"/>
      <point x="276" y="502"/>
      <point x="245" y="535"/>
      <point x="200" y="535" type="curve"/>
      <point x="144" y="535"/>
      <point x="95" y="487"/>
    </contour>
  </outline>
</glyph>
<glyph name="sterling" format="1">
  <advance width="500"/>
  <unicode hex="00A3"/>
  <outline>
    <contour>
      <point x="-18.5" y="0" type="line"/>
      <point x="393.5" y="0" type="line"/>
      <point x="420.5" y="125" type="line"/>
      <point x="8.5" y="125" type="line"/>
    </contour>
    <contour>
      <point x="-3.5" y="29" type="line"/>
      <point x="133.5" y="70"/>
      <point x="252.5" y="167"/>
      <point x="257.5" y="325" type="curve" smooth="yes"/>
      <point x="258.5" y="351"/>
      <point x="256.5" y="371"/>
      <point x="258.5" y="413" type="curve"/>
      <point x="261.5" y="502"/>
      <point x="292" y="565"/>
      <point x="361" y="565" type="curve" smooth="yes"/>
      <point x="402" y="565"/>
      <point x="427" y="547"/>
      <point x="445" y="521" type="curve"/>
      <point x="542" y="613" type="line"/>
      <point x="506" y="666"/>
      <point x="441" y="702"/>
      <point x="365" y="702" type="curve"/>
      <point x="242" y="702"/>
      <point x="127.5" y="617"/>
      <point x="120.5" y="432" type="curve"/>
      <point x="118.5" y="373"/>
      <point x="118.5" y="348"/>
      <point x="117.5" y="318" type="curve" smooth="yes"/>
      <point x="113.5" y="217"/>
      <point x="64.5" y="155"/>
      <point x="8.5" y="125" type="curve"/>
    </contour>
    <contour>
      <point x="38.5" y="263" type="line"/>
      <point x="376.5" y="263" type="line"/>
      <point x="401.5" y="379" type="line"/>
      <point x="63.5" y="379" type="line"/>
    </contour>
  </outline>
</glyph>
<glyph name="currency" format="1">
  <advance width="500"/>
  <unicode hex="00A4"/>
  <outline>
    <contour>
      <point x="-11.0" y="168" type="line"/>
      <point x="62.0" y="68" type="line"/>
      <point x="139.0" y="142" type="line"/>
      <point x="67.0" y="243" type="line"/>
    </contour>
    <contour>
      <point x="63.0" y="300" type="curve" smooth="yes"/>
      <point x="63.0" y="168"/>
      <point x="139.0" y="105"/>
      <point x="222.0" y="105" type="curve" smooth="yes"/>
      <point x="352.0" y="105"/>
      <point x="466.0" y="232"/>
      <point x="466.0" y="391" type="curve" smooth="yes"/>
      <point x="466.0" y="523"/>
      <point x="388.0" y="585"/>
      <point x="306.0" y="585" type="curve" smooth="yes"/>
      <point x="175.0" y="585"/>
      <point x="63.0" y="452"/>
    </contour>
    <contour>
      <point x="72.0" y="537" type="line"/>
      <point x="118.0" y="463" type="line"/>
      <point x="219.0" y="548" type="line"/>
      <point x="173.0" y="622" type="line"/>
    </contour>
    <contour>
      <point x="184.0" y="309" type="curve" smooth="yes"/>
      <point x="184.0" y="386"/>
      <point x="236.0" y="456"/>
      <point x="288.0" y="456" type="curve"/>
      <point x="323.0" y="456"/>
      <point x="345.0" y="429"/>
      <point x="345.0" y="382" type="curve" smooth="yes"/>
      <point x="345.0" y="310"/>
      <point x="294.0" y="234"/>
      <point x="240.0" y="234" type="curve"/>
      <point x="206.0" y="234"/>
      <point x="184.0" y="261"/>
    </contour>
    <contour>
      <point x="310.0" y="142" type="line"/>
      <point x="356.0" y="68" type="line"/>
      <point x="456.0" y="151" type="line"/>
      <point x="409.0" y="225" type="line"/>
    </contour>
    <contour>
      <point x="389.0" y="548" type="line"/>
      <point x="461.0" y="447" type="line"/>
      <point x="538.0" y="522" type="line"/>
      <point x="467.0" y="622" type="line"/>
    </contour>
  </outline>
</glyph>
<glyph name="brokenbar" format="1">
  <advance width="267.6996607590547"/>
  <unicode hex="00A6"/>
  <outline>
    <contour>
      <point x="-36" y="-215" type="line"/>
      <point x="92" y="-215" type="line"/>
      <point x="170" y="150" type="line"/>
      <point x="42" y="150" type="line"/>
    </contour>
    <contour>
      <point x="85" y="355" type="line"/>
      <point x="213" y="355" type="line"/>
      <point x="291" y="720" type="line"/>
      <point x="163" y="720" type="line"/>
    </contour>
  </outline>
</glyph>
<glyph name="section" format="1">
  <advance width="518.7270358328961"/>
  <unicode hex="00A7"/>
  <outline>
    <contour>
      <point x="-61" y="-122" type="line"/>
      <point x="-14" y="-164"/>
      <point x="62" y="-195"/>
      <point x="149" y="-195" type="curve" smooth="yes"/>
      <point x="315" y="-195"/>
      <point x="402" y="-96"/>
      <point x="402" y="3" type="curve" smooth="yes"/>
      <point x="402" y="87"/>
      <point x="358" y="134"/>
      <point x="249" y="192" type="curve" smooth="yes"/>
      <point x="180" y="229"/>
      <point x="167" y="252"/>
      <point x="167" y="281" type="curve" smooth="yes"/>
      <point x="167" y="325"/>
      <point x="199" y="356"/>
      <point x="265" y="368" type="curve"/>
      <point x="193" y="448" type="line"/>
      <point x="96" y="412"/>
      <point x="23" y="347"/>
      <point x="23" y="255" type="curve"/>
      <point x="23" y="178"/>
      <point x="57" y="129"/>
      <point x="160" y="76" type="curve" smooth="yes"/>
      <point x="234" y="38"/>
      <point x="255" y="21"/>
      <point x="255" y="-10" type="curve" smooth="yes"/>
      <point x="255" y="-39"/>
      <point x="227" y="-65"/>
      <point x="162" y="-65" type="curve" smooth="yes"/>
      <point x="112" y="-65"/>
      <point x="54" y="-45"/>
      <point x="15" y="-10" type="curve"/>
    </contour>
    <contour>
      <point x="104" y="502" type="curve" smooth="yes"/>
      <point x="104" y="418"/>
      <point x="148" y="371"/>
      <point x="257" y="313" type="curve" smooth="yes"/>
      <point x="326" y="276"/>
      <point x="339" y="253"/>
      <point x="339" y="224" type="curve" smooth="yes"/>
      <point x="339" y="180"/>
      <point x="307" y="149"/>
      <point x="241" y="137" type="curve"/>
      <point x="313" y="57" type="line"/>
      <point x="410" y="93"/>
      <point x="483" y="158"/>
      <point x="483" y="250" type="curve"/>
      <point x="483" y="327"/>
      <point x="449" y="376"/>
      <point x="346" y="429" type="curve" smooth="yes"/>
      <point x="272" y="467"/>
      <point x="251" y="484"/>
      <point x="251" y="515" type="curve" smooth="yes"/>
      <point x="251" y="544"/>
      <point x="279" y="570"/>
      <point x="344" y="570" type="curve" smooth="yes"/>
      <point x="394" y="570"/>
      <point x="452" y="550"/>
      <point x="491" y="515" type="curve"/>
      <point x="567" y="627" type="line"/>
      <point x="520" y="669"/>
      <point x="444" y="700"/>
      <point x="357" y="700" type="curve" smooth="yes"/>
      <point x="191" y="700"/>
      <point x="104" y="601"/>
    </contour>
  </outline>
</glyph>
<glyph name="ordfeminine" format="1">
  <advance width="401.35859711569356"/>
  <unicode hex="00AA"/>
  <outline>
    <contour>
      <point x="63" y="431" type="curve"/>
      <point x="63" y="345"/>
      <point x="99" y="281"/>
      <point x="162" y="281" type="curve"/>
      <point x="210" y="281"/>
      <point x="255" y="314"/>
      <point x="281" y="367" type="curve"/>
      <point x="270" y="375" type="line"/>
      <point x="268" y="290" type="line"/>
      <point x="367" y="290" type="line"/>
      <point x="368" y="329" type="line" smooth="yes"/>
      <point x="368" y="346"/>
      <point x="370" y="366"/>
      <point x="374" y="386" type="curve" smooth="yes"/>
      <point x="439" y="690" type="line"/>
      <point x="343" y="690" type="line"/>
      <point x="329" y="657" type="line"/>
      <point x="299" y="518" type="line" smooth="yes"/>
      <point x="281" y="434"/>
      <point x="237" y="385"/>
      <point x="203" y="385" type="curve"/>
      <point x="181" y="385"/>
      <point x="169" y="399"/>
      <point x="169" y="445" type="curve"/>
      <point x="169" y="518"/>
      <point x="206" y="605"/>
      <point x="263" y="605" type="curve"/>
      <point x="287" y="605"/>
      <point x="310" y="590"/>
      <point x="326" y="564" type="curve"/>
      <point x="344" y="658" type="line"/>
      <point x="322" y="683"/>
      <point x="290" y="699"/>
      <point x="256" y="699" type="curve"/>
      <point x="156" y="699"/>
      <point x="63" y="572"/>
    </contour>
  </outline>
</glyph>
<glyph name="guillemetleft" format="1">
  <advance width="465.29502257303807"/>
  <unicode hex="00AB"/>
  <outline>
    <contour>
      <point x="18" y="240" type="line"/>
      <point x="74" y="88" type="line"/>
      <point x="207" y="88" type="line"/>
      <point x="130" y="308" type="line"/>
      <point x="34" y="314" type="line"/>
    </contour>
    <contour>
      <point x="18" y="240" type="line"/>
      <point x="139" y="257" type="line"/>
      <point x="283" y="464" type="line"/>
      <point x="138" y="464" type="line"/>
      <point x="34" y="314" type="line"/>
    </contour>
    <contour>
      <point x="217" y="240" type="line"/>
      <point x="273" y="88" type="line"/>
      <point x="406" y="88" type="line"/>
      <point x="329" y="308" type="line"/>
      <point x="233" y="314" type="line"/>
    </contour>
    <contour>
      <point x="217" y="240" type="line"/>
      <point x="338" y="257" type="line"/>
      <point x="482" y="464" type="line"/>
      <point x="337" y="464" type="line"/>
      <point x="233" y="314" type="line"/>
    </contour>
  </outline>
</glyph>
<glyph name="logicalnot" format="1">
  <advance width="500"/>
  <unicode hex="00AC"/>
  <outline>
    <contour>
      <point x="34.0" y="220" type="line"/>
      <point x="408.0" y="220" type="line"/>
      <point x="470.0" y="360" type="line"/>
      <point x="64.0" y="360" type="line"/>
    </contour>
    <contour>
      <point x="276.0" y="54" type="line"/>
      <point x="404.0" y="54" type="line"/>
      <point x="470.0" y="360" type="line"/>
      <point x="342.0" y="360" type="line"/>
    </contour>
  </outline>
</glyph>
<glyph name="registered" format="1">
  <advance width="810"/>
  <unicode hex="00AE"/>
  <outline>
    <contour>
      <point x="419" y="-10" type="curve" smooth="yes"/>
      <point x="619" y="-10"/>
      <point x="774" y="145"/>
      <point x="774" y="345" type="curve" smooth="yes"/>
      <point x="774" y="545"/>
      <point x="619" y="700"/>
      <point x="419" y="700" type="curve" smooth="yes"/>
      <point x="219" y="700"/>
      <point x="64" y="545"/>
      <point x="64" y="345" type="curve" smooth="yes"/>
      <point x="64" y="145"/>
      <point x="219" y="-10"/>
    </contour>
    <contour>
      <point x="419" y="60" type="curve" smooth="yes"/>
      <point x="259" y="60"/>
      <point x="136" y="185"/>
      <point x="136" y="345" type="curve" smooth="yes"/>
      <point x="136" y="505"/>
      <point x="259" y="630"/>
      <point x="419" y="630" type="curve" smooth="yes"/>
      <point x="579" y="630"/>
      <point x="702" y="505"/>
      <point x="702" y="345" type="curve" smooth="yes"/>
      <point x="702" y="185"/>
      <point x="579" y="60"/>
    </contour>
    <contour>
      <point x="262" y="138" type="line"/>
      <point x="372" y="138" type="line"/>
      <point x="372" y="552" type="line"/>
      <point x="262" y="552" type="line"/>
    </contour>
    <contour>
      <point x="314" y="274" type="line"/>
      <point x="423" y="274" type="line" smooth="yes"/>
      <point x="509" y="274"/>
      <point x="579" y="322"/>
      <point x="579" y="413" type="curve" smooth="yes"/>
      <point x="579" y="502"/>
      <point x="509" y="552"/>
      <point x="423" y="552" type="curve" smooth="yes"/>
      <point x="314" y="552" type="line"/>
      <point x="314" y="462" type="line"/>
      <point x="414" y="462" type="line" smooth="yes"/>
      <point x="447" y="462"/>
      <point x="469" y="445"/>
      <point x="469" y="413" type="curve" smooth="yes"/>
      <point x="469" y="380"/>
      <point x="446" y="362"/>
      <point x="414" y="362" type="curve" smooth="yes"/>
      <point x="314" y="362" type="line"/>
    </contour>
    <contour>
      <point x="390" y="312" type="line"/>
      <point x="470" y="138" type="line"/>
      <point x="592" y="138" type="line"/>
      <point x="496" y="312" type="line"/>
    </contour>
  </outline>
</glyph>
<glyph name="macron" format="1">
  <advance width="500"/>
  <unicode hex="00AF"/>
  <outline>
    <contour>
      <point x="175" y="619" type="line"/>
      <point x="467" y="619" type="line"/>
      <point x="491" y="735" type="line"/>
      <point x="199" y="735" type="line"/>
    </contour>
    <contour>
      <point x="302" y="525" type="move" name="_top"/>
    </contour>
  </outline>
</glyph>
<glyph name="degree" format="1">
  <advance width="329.72953665465286"/>
  <unicode hex="00B0"/>
  <outline>
    <contour>
      <point x="64" y="515" type="curve"/>
      <point x="64" y="425"/>
      <point x="119" y="370"/>
      <point x="199" y="370" type="curve"/>
      <point x="295" y="370"/>
      <point x="374" y="459"/>
      <point x="374" y="557" type="curve"/>
      <point x="374" y="647"/>
      <point x="320" y="702"/>
      <point x="240" y="702" type="curve"/>
      <point x="144" y="702"/>
      <point x="64" y="613"/>
    </contour>
    <contour>
      <point x="159" y="523" type="curve"/>
      <point x="159" y="568"/>
      <point x="192" y="608"/>
      <point x="231" y="608" type="curve"/>
      <point x="263" y="608"/>
      <point x="280" y="583"/>
      <point x="280" y="549" type="curve"/>
      <point x="280" y="505"/>
      <point x="246" y="464"/>
      <point x="208" y="464" type="curve"/>
      <point x="176" y="464"/>
      <point x="159" y="490"/>
    </contour>
  </outline>
</glyph>
<glyph name="threesuperior" format="1">
  <advance width="370.22580302174856"/>
  <unicode hex="00B3"/>
  <outline>
    <contour>
      <point x="57" y="332" type="line"/>
      <point x="83" y="301"/>
      <point x="126" y="278"/>
      <point x="180" y="278" type="curve" smooth="yes"/>
      <point x="269" y="278"/>
      <point x="336" y="348"/>
      <point x="336" y="428" type="curve"/>
      <point x="336" y="494"/>
      <point x="288" y="529"/>
      <point x="221" y="529" type="curve"/>
      <point x="196" y="529" type="line"/>
      <point x="156" y="515" type="line"/>
      <point x="145" y="459" type="line"/>
      <point x="192" y="459" type="line" smooth="yes"/>
      <point x="222" y="459"/>
      <point x="239" y="449"/>
      <point x="238" y="424" type="curve"/>
      <point x="237" y="392"/>
      <point x="213" y="370"/>
      <point x="182" y="370" type="curve" smooth="yes"/>
      <point x="155" y="370"/>
      <point x="132" y="380"/>
      <point x="114" y="402" type="curve"/>
    </contour>
    <contour>
      <point x="125" y="597" type="line"/>
      <point x="335" y="597" type="line"/>
      <point x="362" y="618" type="line"/>
      <point x="378" y="690" type="line"/>
      <point x="145" y="690" type="line"/>
    </contour>
    <contour>
      <point x="156" y="515" type="line"/>
      <point x="254" y="515" type="line"/>
      <point x="362" y="618" type="line"/>
      <point x="331" y="690" type="line"/>
    </contour>
  </outline>
</glyph>
<glyph name="acute" format="1">
  <advance width="500"/>
  <unicode hex="00B4"/>
  <outline>
    <contour>
      <point x="250" y="601" type="line"/>
      <point x="357" y="601" type="line"/>
      <point x="489" y="751" type="line"/>
      <point x="345" y="751" type="line"/>
    </contour>
    <contour>
      <point x="302" y="525" type="move" name="_top"/>
    </contour>
  </outline>
</glyph>
<glyph name="paragraph" format="1">
  <advance width="696.1247738823948"/>
  <unicode hex="00B6"/>
  <outline>
    <contour>
      <point x="59" y="376" type="curve" smooth="yes"/>
      <point x="59" y="254"/>
      <point x="136" y="168"/>
      <point x="239" y="168" type="curve" smooth="yes"/>
      <point x="260" y="168" type="line"/>
      <point x="178" y="-217" type="line"/>
      <point x="307" y="-217" type="line"/>
      <point x="500" y="690" type="line"/>
      <point x="350" y="690" type="line" smooth="yes"/>
      <point x="200" y="690"/>
      <point x="59" y="560"/>
    </contour>
    <contour>
      <point x="392" y="-217" type="line"/>
      <point x="522" y="-217" type="line"/>
      <point x="713" y="690" type="line"/>
      <point x="585" y="690" type="line"/>
    </contour>
  </outline>
</glyph>
<glyph name="cedilla" format="1">
  <advance width="500"/>
  <unicode hex="00B8"/>
  <outline>
    <contour>
      <point x="84" y="-197" type="line"/>
      <point x="119" y="-197" type="line" smooth="yes"/>
      <point x="197" y="-197"/>
      <point x="257" y="-176"/>
      <point x="257" y="-108" type="curve" smooth="yes"/>
      <point x="257" y="-77"/>
      <point x="236" y="-54"/>
      <point x="204" y="-46" type="curve"/>
      <point x="222" y="9" type="line"/>
      <point x="162" y="15" type="line"/>
      <point x="122" y="-83" type="line"/>
      <point x="137" y="-85" type="line" smooth="yes"/>
      <point x="163" y="-88"/>
      <point x="170" y="-96"/>
      <point x="170" y="-108" type="curve"/>
      <point x="170" y="-124"/>
      <point x="157" y="-136"/>
      <point x="106" y="-136" type="curve"/>
    </contour>
    <contour>
      <point x="188" y="0" type="move" name="_bottom"/>
    </contour>
  </outline>
</glyph>
<glyph name="onesuperior" format="1">
  <advance width="370.35859711569356"/>
  <unicode hex="00B9"/>
  <outline>
    <contour>
      <point x="68" y="290" type="line"/>
      <point x="322" y="290" type="line"/>
      <point x="340" y="377" type="line"/>
      <point x="86" y="377" type="line"/>
    </contour>
    <contour>
      <point x="119" y="630" type="line"/>
      <point x="149" y="549" type="line"/>
      <point x="285" y="614" type="line"/>
      <point x="252" y="690" type="line"/>
    </contour>
    <contour>
      <point x="144" y="290" type="line"/>
      <point x="243" y="290" type="line"/>
      <point x="328" y="690" type="line"/>
      <point x="252" y="690" type="line"/>
      <point x="217" y="637" type="line"/>
    </contour>
  </outline>
</glyph>
<glyph name="ordmasculine" format="1">
  <advance width="386.0902061047801"/>
  <unicode hex="00BA"/>
  <outline>
    <contour>
      <point x="68" y="435" type="curve"/>
      <point x="68" y="341"/>
      <point x="122" y="279"/>
      <point x="200" y="279" type="curve"/>
      <point x="322" y="279"/>
      <point x="407" y="414"/>
      <point x="407" y="545" type="curve"/>
      <point x="407" y="638"/>
      <point x="354" y="700"/>
      <point x="274" y="700" type="curve"/>
      <point x="154" y="700"/>
      <point x="68" y="574"/>
    </contour>
    <contour>
      <point x="175" y="445" type="curve" smooth="yes"/>
      <point x="175" y="518"/>
      <point x="212" y="606"/>
      <point x="258" y="606" type="curve"/>
      <point x="285" y="606"/>
      <point x="299" y="582"/>
      <point x="299" y="533" type="curve" smooth="yes"/>
      <point x="299" y="460"/>
      <point x="264" y="373"/>
      <point x="216" y="373" type="curve"/>
      <point x="190" y="373"/>
      <point x="175" y="397"/>
    </contour>
  </outline>
</glyph>
<glyph name="questiondown" format="1">
  <advance width="443"/>
  <unicode hex="00BF"/>
  <outline>
    <contour>
      <point x="170" y="430" type="curve" smooth="yes"/>
      <point x="170" y="390"/>
      <point x="202" y="358"/>
      <point x="244" y="358" type="curve" smooth="yes"/>
      <point x="302" y="358"/>
      <point x="352" y="403"/>
      <point x="352" y="465" type="curve" smooth="yes"/>
      <point x="352" y="505"/>
      <point x="320" y="537"/>
      <point x="278" y="537" type="curve" smooth="yes"/>
      <point x="220" y="537"/>
      <point x="170" y="492"/>
    </contour>
    <contour>
      <point x="-19" y="-31" type="curve" smooth="yes"/>
      <point x="-19" y="-123"/>
      <point x="50" y="-197"/>
      <point x="153" y="-197" type="curve"/>
      <point x="227" y="-197"/>
      <point x="305" y="-165"/>
      <point x="368" y="-94" type="curve"/>
      <point x="296" y="22" type="line"/>
      <point x="249" y="-32"/>
      <point x="222" y="-47"/>
      <point x="188" y="-47" type="curve"/>
      <point x="157" y="-47"/>
      <point x="139" y="-21"/>
      <point x="139" y="8" type="curve" smooth="yes"/>
      <point x="139" y="38"/>
      <point x="149" y="65"/>
      <point x="219" y="122" type="curve" smooth="yes"/>
      <point x="259" y="155"/>
      <point x="278" y="183"/>
      <point x="277" y="237" type="curve" smooth="yes"/>
      <point x="276" y="274" type="line"/>
      <point x="177" y="274" type="line"/>
      <point x="171" y="254" type="line" smooth="yes"/>
      <point x="164" y="232"/>
      <point x="151" y="214"/>
      <point x="133" y="202" type="curve" smooth="yes"/>
      <point x="11" y="121"/>
      <point x="-19" y="48"/>
    </contour>
  </outline>
</glyph>
<glyph name="Ccedilla" format="1">
  <advance width="543.8457013130783"/>
  <unicode hex="00C7"/>
  <outline>
    <contour>
      <point x="38" y="243" type="curve"/>
      <point x="38" y="91"/>
      <point x="123" y="-12"/>
      <point x="255" y="-12" type="curve"/>
      <point x="331" y="-12"/>
      <point x="410" y="27"/>
      <point x="467" y="76" type="curve"/>
      <point x="405" y="194" type="line"/>
      <point x="363" y="150"/>
      <point x="323" y="128"/>
      <point x="278" y="128" type="curve"/>
      <point x="226" y="128"/>
      <point x="189" y="170"/>
      <point x="189" y="258" type="curve"/>
      <point x="189" y="444"/>
      <point x="278" y="563"/>
      <point x="374" y="563" type="curve"/>
      <point x="414" y="563"/>
      <point x="450" y="546"/>
      <point x="478" y="514" type="curve"/>
      <point x="582" y="623" type="line"/>
      <point x="529" y="678"/>
      <point x="465" y="702"/>
      <point x="402" y="702" type="curve"/>
      <point x="206" y="702"/>
      <point x="38" y="503"/>
    </contour>
    <contour>
      <point x="146" y="-197" type="line"/>
      <point x="181" y="-197" type="line" smooth="yes"/>
      <point x="259" y="-197"/>
      <point x="319" y="-176"/>
      <point x="319" y="-108" type="curve" smooth="yes"/>
      <point x="319" y="-77"/>
      <point x="298" y="-54"/>
      <point x="266" y="-46" type="curve"/>
      <point x="284" y="9" type="line"/>
      <point x="224" y="15" type="line"/>
      <point x="184" y="-83" type="line"/>
      <point x="199" y="-85" type="line" smooth="yes"/>
      <point x="225" y="-88"/>
      <point x="232" y="-96"/>
      <point x="232" y="-108" type="curve"/>
      <point x="232" y="-124"/>
      <point x="219" y="-136"/>
      <point x="168" y="-136" type="curve"/>
    </contour>
  </outline>
</glyph>
<glyph name="Thorn" format="1">
  <advance width="555.1629004374681"/>
  <unicode hex="00DE"/>
  <outline>
    <contour>
      <point x="10" y="0" type="line"/>
      <point x="156" y="0" type="line"/>
      <point x="303" y="690" type="line"/>
      <point x="157" y="690" type="line"/>
    </contour>
    <contour>
      <point x="100" y="104" type="line"/>
      <point x="246" y="104" type="line" smooth="yes"/>
      <point x="416" y="104"/>
      <point x="539" y="221"/>
      <point x="539" y="385" type="curve" smooth="yes"/>
      <point x="539" y="509"/>
      <point x="461" y="586"/>
      <point x="337" y="586" type="curve"/>
      <point x="209" y="586" type="line"/>
      <point x="177" y="454" type="line"/>
      <point x="305" y="454" type="line" smooth="yes"/>
      <point x="365" y="454"/>
      <point x="390" y="423"/>
      <point x="390" y="371" type="curve" smooth="yes"/>
      <point x="390" y="289"/>
      <point x="338" y="236"/>
      <point x="257" y="236" type="curve"/>
      <point x="132" y="236" type="line"/>
    </contour>
  </outline>
</glyph>
<glyph name="germandbls" format="1">
  <advance width="515.5307998305245"/>
  <unicode hex="00DF"/>
  <outline>
    <contour>
      <point x="0" y="0" type="line"/>
      <point x="137" y="0" type="line"/>
      <point x="241" y="491" type="line" smooth="yes"/>
      <point x="258" y="571"/>
      <point x="286" y="597"/>
      <point x="314" y="597" type="curve"/>
      <point x="336" y="597"/>
      <point x="353" y="582"/>
      <point x="353" y="545" type="curve" smooth="yes"/>
      <point x="353" y="496"/>
      <point x="310" y="442"/>
      <point x="255" y="401" type="curve"/>
      <point x="232" y="292" type="line"/>
      <point x="297" y="240" type="line" smooth="yes"/>
      <point x="323" y="220"/>
      <point x="332" y="198"/>
      <point x="332" y="174" type="curve" smooth="yes"/>
      <point x="332" y="140"/>
      <point x="309" y="112"/>
      <point x="274" y="112" type="curve"/>
      <point x="256" y="112"/>
      <point x="238" y="119"/>
      <point x="219" y="134" type="curve"/>
      <point x="163" y="33" type="line"/>
      <point x="184" y="13"/>
      <point x="227" y="-10"/>
      <point x="291" y="-10" type="curve"/>
      <point x="384" y="-10"/>
      <point x="466" y="64"/>
      <point x="466" y="176" type="curve" smooth="yes"/>
      <point x="466" y="243"/>
      <point x="434" y="294"/>
      <point x="391" y="326" type="curve" smooth="yes"/>
      <point x="356" y="352" type="line"/>
      <point x="426" y="407"/>
      <point x="479" y="476"/>
      <point x="479" y="569" type="curve"/>
      <point x="479" y="665"/>
      <point x="421" y="730"/>
      <point x="325" y="730" type="curve"/>
      <point x="204" y="730"/>
      <point x="140" y="661"/>
      <point x="106" y="500" type="curve" smooth="yes"/>
    </contour>
  </outline>
</glyph>
<glyph name="ae" format="1">
  <advance width="719.4591628614687"/>
  <unicode hex="00E6"/>
  <outline>
    <contour>
      <point x="-9" y="128" type="curve"/>
      <point x="-9" y="54"/>
      <point x="37" y="-12"/>
      <point x="123" y="-12" type="curve"/>
      <point x="202" y="-12"/>
      <point x="263" y="29"/>
      <point x="312" y="93" type="curve"/>
      <point x="281" y="161" type="line"/>
      <point x="243" y="124"/>
      <point x="212" y="106"/>
      <point x="178" y="106" type="curve"/>
      <point x="146" y="106"/>
      <point x="130" y="124"/>
      <point x="130" y="148" type="curve"/>
      <point x="130" y="187"/>
      <point x="175" y="219"/>
      <point x="270" y="219" type="curve" smooth="yes"/>
      <point x="281" y="219"/>
      <point x="292" y="219"/>
      <point x="299" y="218" type="curve"/>
      <point x="318" y="311" type="line"/>
      <point x="297" y="312"/>
      <point x="261" y="313"/>
      <point x="231" y="313" type="curve" smooth="yes"/>
      <point x="97" y="313"/>
      <point x="-9" y="255"/>
    </contour>
    <contour>
      <point x="86" y="496" type="curve"/>
      <point x="94" y="371" type="line"/>
      <point x="130" y="389"/>
      <point x="174" y="403"/>
      <point x="221" y="403" type="curve" smooth="yes"/>
      <point x="269" y="403"/>
      <point x="291" y="382"/>
      <point x="291" y="347" type="curve"/>
      <point x="291" y="335"/>
      <point x="289" y="311"/>
      <point x="280" y="279" type="curve"/>
      <point x="406" y="280" type="line"/>
      <point x="420" y="349"/>
      <point x="409" y="367"/>
      <point x="409" y="386" type="curve" smooth="yes"/>
      <point x="409" y="486"/>
      <point x="352" y="537"/>
      <point x="268" y="537" type="curve"/>
      <point x="192" y="537"/>
      <point x="134" y="519"/>
    </contour>
    <contour>
      <point x="269" y="183" type="curve"/>
      <point x="265" y="66"/>
      <point x="332" y="-12"/>
      <point x="447" y="-12" type="curve" smooth="yes"/>
      <point x="516" y="-12"/>
      <point x="567" y="7"/>
      <point x="639" y="57" type="curve"/>
      <point x="589" y="158" type="line"/>
      <point x="552" y="129"/>
      <point x="522" y="115"/>
      <point x="483" y="115" type="curve" smooth="yes"/>
      <point x="432" y="115"/>
      <point x="409" y="150"/>
      <point x="411" y="207" type="curve" smooth="yes"/>
      <point x="416" y="371"/>
      <point x="478" y="415"/>
      <point x="523" y="415" type="curve" smooth="yes"/>
      <point x="550" y="415"/>
      <point x="564" y="398"/>
      <point x="564" y="373" type="curve" smooth="yes"/>
      <point x="564" y="333"/>
      <point x="528" y="307"/>
      <point x="388" y="307" type="curve" smooth="yes"/>
      <point x="387" y="307"/>
      <point x="385" y="307"/>
      <point x="384" y="307" type="curve"/>
      <point x="362" y="213" type="line"/>
      <point x="369" y="213"/>
      <point x="377" y="213"/>
      <point x="384" y="213" type="curve" smooth="yes"/>
      <point x="576" y="213"/>
      <point x="696" y="266"/>
      <point x="696" y="390" type="curve" smooth="yes"/>
      <point x="696" y="474"/>
      <point x="641" y="537"/>
      <point x="551" y="537" type="curve" smooth="yes"/>
      <point x="383" y="537"/>
      <point x="275" y="372"/>
    </contour>
    <contour>
      <point x="406" y="526" type="move" name="top"/>
    </contour>
  </outline>
</glyph>
<glyph name="ccedilla" format="1">
  <advance width="416"/>
  <unicode hex="00E7"/>
  <outline>
    <contour>
      <point x="138" y="537"/>
      <point x="15" y="370"/>
      <point x="15" y="190" type="curve" smooth="yes"/>
      <point x="15" y="71"/>
      <point x="85" y="-12"/>
      <point x="203" y="-12" type="curve" smooth="yes"/>
      <point x="255" y="-12"/>
      <point x="300" y="4"/>
      <point x="343" y="28" type="curve"/>
      <point x="312" y="141" type="line"/>
      <point x="291" y="128"/>
      <point x="264" y="119"/>
      <point x="240" y="119" type="curve" smooth="yes"/>
      <point x="193" y="119"/>
      <point x="160" y="153"/>
      <point x="160" y="215" type="curve" smooth="yes"/>
      <point x="160" y="303"/>
      <point x="210" y="406"/>
      <point x="301" y="406" type="curve" smooth="yes"/>
      <point x="325" y="406"/>
      <point x="348" y="397"/>
      <point x="364" y="384" type="curve"/>
      <point x="443" y="497" type="line"/>
      <point x="410" y="521"/>
      <point x="372" y="537"/>
      <point x="320" y="537" type="curve" smooth="yes"/>
    </contour>
    <contour>
      <point x="82" y="-197" type="line"/>
      <point x="117" y="-197" type="line" smooth="yes"/>
      <point x="195" y="-197"/>
      <point x="255" y="-176"/>
      <point x="255" y="-108" type="curve" smooth="yes"/>
      <point x="255" y="-77"/>
      <point x="234" y="-54"/>
      <point x="202" y="-46" type="curve"/>
      <point x="220" y="9" type="line"/>
      <point x="160" y="15" type="line"/>
      <point x="120" y="-83" type="line"/>
      <point x="135" y="-85" type="line" smooth="yes"/>
      <point x="161" y="-88"/>
      <point x="168" y="-96"/>
      <point x="168" y="-108" type="curve"/>
      <point x="168" y="-124"/>
      <point x="155" y="-136"/>
      <point x="104" y="-136" type="curve"/>
    </contour>
  </outline>
</glyph>
<glyph name="oslash" format="1">
  <advance width="485.1931563019083"/>
  <unicode hex="00F8"/>
  <outline>
    <contour>
      <point x="18" y="178" type="curve"/>
      <point x="18" y="70"/>
      <point x="88" y="-10"/>
      <point x="186" y="-10" type="curve"/>
      <point x="336" y="-10"/>
      <point x="459" y="142"/>
      <point x="459" y="347" type="curve"/>
      <point x="459" y="455"/>
      <point x="390" y="535"/>
      <point x="291" y="535" type="curve"/>
      <point x="142" y="535"/>
      <point x="18" y="383"/>
    </contour>
    <contour>
      <point x="160" y="196" type="curve"/>
      <point x="160" y="334"/>
      <point x="224" y="410"/>
      <point x="268" y="410" type="curve"/>
      <point x="299" y="410"/>
      <point x="317" y="385"/>
      <point x="317" y="329" type="curve"/>
      <point x="317" y="191"/>
      <point x="254" y="115"/>
      <point x="208" y="115" type="curve"/>
      <point x="179" y="115"/>
      <point x="160" y="140"/>
    </contour>
    <contour>
      <point x="-13" y="55" type="line"/>
      <point x="45" y="-10" type="line"/>
      <point x="491" y="470" type="line"/>
      <point x="432" y="535" type="line"/>
    </contour>
    <contour>
      <point x="296" y="526" type="move" name="top"/>
    </contour>
  </outline>
</glyph>
<glyph name="dcroat" format="1">
  <advance width="522.0"/>
  <unicode hex="0111"/>
  <outline>
    <contour>
      <point x="282" y="563" type="line"/>
      <point x="561" y="563" type="line"/>
      <point x="584" y="673" type="line"/>
      <point x="305" y="673" type="line"/>
    </contour>
    <contour>
      <point x="16" y="178" type="curve" smooth="yes"/>
      <point x="16" y="63"/>
      <point x="65" y="-12"/>
      <point x="149" y="-12" type="curve"/>
      <point x="208" y="-12"/>
      <point x="265" y="31"/>
      <point x="302" y="101" type="curve"/>
      <point x="286" y="111" type="line"/>
      <point x="283" y="0" type="line"/>
      <point x="414" y="0" type="line"/>
      <point x="416" y="50" type="line" smooth="yes"/>
      <point x="417" y="79"/>
      <point x="418" y="96"/>
      <point x="424" y="125" type="curve" smooth="yes"/>
      <point x="553" y="735" type="line"/>
      <point x="413" y="715" type="line"/>
      <point x="324" y="298" type="line" smooth="yes"/>
      <point x="300" y="184"/>
      <point x="243" y="123"/>
      <point x="203" y="123" type="curve"/>
      <point x="177" y="123"/>
      <point x="158" y="144"/>
      <point x="158" y="199" type="curve" smooth="yes"/>
      <point x="158.0" y="292.8199052132702"/>
      <point x="205" y="395"/>
      <point x="278" y="395" type="curve" smooth="yes"/>
      <point x="309" y="395"/>
      <point x="338" y="383"/>
      <point x="362" y="346" type="curve"/>
      <point x="385" y="468" type="line"/>
      <point x="356" y="502"/>
      <point x="313" y="520"/>
      <point x="269" y="520" type="curve" smooth="yes"/>
      <point x="136" y="520"/>
      <point x="16.0" y="348.52100840336135"/>
    </contour>
  </outline>
</glyph>
<glyph name="eogonek" format="1">
  <advance width="463.4591628614687"/>
  <unicode hex="0119"/>
  <outline>
    <contour>
      <point x="16" y="183" type="curve" smooth="yes"/>
      <point x="13" y="66"/>
      <point x="79" y="-12"/>
      <point x="194" y="-12" type="curve" smooth="yes"/>
      <point x="263" y="-12"/>
      <point x="314" y="9"/>
      <point x="386" y="59" type="curve"/>
      <point x="335" y="166" type="line"/>
      <point x="299" y="138"/>
      <point x="254" y="118"/>
      <point x="216" y="118" type="curve" smooth="yes"/>
      <point x="174" y="118"/>
      <point x="156" y="150"/>
      <point x="158" y="207" type="curve" smooth="yes"/>
      <point x="161" y="299"/>
      <point x="204" y="413"/>
      <point x="274" y="413" type="curve" smooth="yes"/>
      <point x="298" y="413"/>
      <point x="312" y="398"/>
      <point x="311" y="373" type="curve" smooth="yes"/>
      <point x="310" y="335"/>
      <point x="282" y="309"/>
      <point x="119" y="308" type="curve" smooth="yes"/>
      <point x="121" y="308"/>
      <point x="121" y="308"/>
      <point x="125" y="308" type="curve"/>
      <point x="109" y="213" type="line"/>
      <point x="116" y="213"/>
      <point x="120" y="213"/>
      <point x="128" y="213" type="curve" smooth="yes"/>
      <point x="306" y="213"/>
      <point x="442" y="245"/>
      <point x="447" y="390" type="curve" smooth="yes"/>
      <point x="449" y="473"/>
      <point x="389" y="538"/>
      <point x="298" y="538" type="curve" smooth="yes"/>
      <point x="130" y="538"/>
      <point x="23" y="372"/>
    </contour>
    <contour>
      <point x="160" y="-121" type="curve" smooth="yes"/>
      <point x="159" y="-163"/>
      <point x="184" y="-197"/>
      <point x="227" y="-197" type="curve" smooth="yes"/>
      <point x="262" y="-197"/>
      <point x="295" y="-185"/>
      <point x="314" y="-170" type="curve"/>
      <point x="299" y="-97" type="line"/>
      <point x="284" y="-107"/>
      <point x="274" y="-115"/>
      <point x="257" y="-115" type="curve" smooth="yes"/>
      <point x="247" y="-115"/>
      <point x="242" y="-107"/>
      <point x="242" y="-93" type="curve" smooth="yes"/>
      <point x="243" y="-60"/>
      <point x="297" y="-40"/>
      <point x="386" y="59" type="curve"/>
      <point x="244" y="0" type="line"/>
      <point x="197" y="-25"/>
      <point x="162" y="-84"/>
    </contour>
  </outline>
</glyph>
<glyph name="IJ" format="1">
  <advance width="706.3359724476848"/>
  <unicode hex="0132"/>
  <outline>
    <contour>
      <point x="10" y="0" type="line"/>
      <point x="156" y="0" type="line"/>
      <point x="303" y="690" type="line"/>
      <point x="157" y="690" type="line"/>
    </contour>
    <contour>
      <point x="236" y="33" type="line"/>
      <point x="270" y="6"/>
      <point x="318" y="-12"/>
      <point x="373" y="-12" type="curve" smooth="yes"/>
      <point x="500" y="-12"/>
      <point x="598" y="63"/>
      <point x="635" y="237" type="curve" smooth="yes"/>
      <point x="732" y="690" type="line"/>
      <point x="587" y="690" type="line"/>
      <point x="496" y="262" type="line" smooth="yes"/>
      <point x="475" y="165"/>
      <point x="436" y="125"/>
      <point x="379" y="125" type="curve" smooth="yes"/>
      <point x="354" y="125"/>
      <point x="328" y="138"/>
      <point x="314" y="151" type="curve"/>
    </contour>
  </outline>
</glyph>
<glyph name="kra" format="1">
  <advance width="483.0"/>
  <unicode hex="0138"/>
  <outline>
    <contour>
      <point x="0" y="0" type="line"/>
      <point x="137" y="0" type="line"/>
      <point x="248" y="525" type="line"/>
      <point x="111" y="525" type="line"/>
    </contour>
    <contour>
      <point x="101" y="87" type="line"/>
      <point x="531" y="526" type="line"/>
      <point x="350" y="526" type="line"/>
      <point x="143" y="279" type="line"/>
    </contour>
    <contour>
      <point x="200" y="260" type="line"/>
      <point x="280" y="0" type="line"/>
      <point x="426" y="0" type="line"/>
      <point x="300" y="355" type="line"/>
    </contour>
  </outline>
</glyph>
<glyph name="Lslash" format="1">
  <advance width="507.0"/>
  <unicode hex="0141"/>
  <outline>
    <contour>
      <point x="2" y="174" type="line"/>
      <point x="338" y="363" type="line"/>
      <point x="369" y="507" type="line"/>
      <point x="33" y="318" type="line"/>
    </contour>
    <contour>
      <point x="10" y="0" type="line"/>
      <point x="156" y="0" type="line"/>
      <point x="303" y="690" type="line"/>
      <point x="157" y="690" type="line"/>
    </contour>
    <contour>
      <point x="79" y="0" type="line"/>
      <point x="417" y="0" type="line"/>
      <point x="445" y="134" type="line"/>
      <point x="107" y="134" type="line"/>
    </contour>
  </outline>
</glyph>
<glyph name="lslash" format="1">
  <advance width="267.7988685084498"/>
  <unicode hex="0142"/>
  <outline>
    <contour>
      <point x="0" y="0" type="line"/>
      <point x="137" y="0" type="line"/>
      <point x="293" y="735" type="line"/>
      <point x="152" y="715" type="line"/>
    </contour>
    <contour>
      <point x="-5" y="166" type="line"/>
      <point x="265" y="317" type="line"/>
      <point x="296" y="462" type="line"/>
      <point x="26" y="311" type="line"/>
    </contour>
  </outline>
</glyph>
<glyph name="Eng" format="1">
  <advance width="638.3359724476848"/>
  <unicode hex="014A"/>
  <outline>
    <contour>
      <point x="10" y="0" type="line"/>
      <point x="140" y="0" type="line"/>
      <point x="289" y="690" type="line"/>
      <point x="157" y="690" type="line"/>
    </contour>
    <contour>
      <point x="210" y="690" type="line"/>
      <point x="378" y="0" type="line"/>
      <point x="506" y="0" type="line"/>
      <point x="338" y="690" type="line"/>
    </contour>
    <contour>
      <point x="232" y="-177" type="line"/>
      <point x="253" y="-187"/>
      <point x="286" y="-195"/>
      <point x="318" y="-195" type="curve"/>
      <point x="418" y="-195"/>
      <point x="479" y="-133"/>
      <point x="508" y="1" type="curve" smooth="yes"/>
      <point x="655" y="690" type="line"/>
      <point x="525" y="690" type="line"/>
      <point x="379" y="5" type="line" smooth="yes"/>
      <point x="368" y="-46"/>
      <point x="342" y="-71"/>
      <point x="308" y="-71" type="curve"/>
      <point x="295" y="-71"/>
      <point x="280" y="-66"/>
      <point x="267" y="-59" type="curve"/>
    </contour>
  </outline>
</glyph>
<glyph name="eng" format="1">
  <advance width="544.1320939052986"/>
  <unicode hex="014B"/>
  <outline>
    <contour>
      <point x="5" y="0" type="line"/>
      <point x="142" y="0" type="line"/>
      <point x="190" y="228" type="line" smooth="yes"/>
      <point x="215" y="348"/>
      <point x="269" y="398"/>
      <point x="316" y="398" type="curve"/>
      <point x="344" y="398"/>
      <point x="361" y="381"/>
      <point x="361" y="349" type="curve" smooth="yes"/>
      <point x="361" y="336"/>
      <point x="359" y="322"/>
      <point x="357" y="312" type="curve" smooth="yes"/>
      <point x="292" y="5" type="line" smooth="yes"/>
      <point x="281" y="-46"/>
      <point x="255" y="-71"/>
      <point x="221" y="-71" type="curve"/>
      <point x="208" y="-71"/>
      <point x="193" y="-66"/>
      <point x="180" y="-59" type="curve"/>
      <point x="145" y="-177" type="line"/>
      <point x="166" y="-187"/>
      <point x="199" y="-195"/>
      <point x="231" y="-195" type="curve"/>
      <point x="331" y="-195"/>
      <point x="399" y="-133"/>
      <point x="428" y="1" type="curve" smooth="yes"/>
      <point x="494" y="310" type="line" smooth="yes"/>
      <point x="499" y="332"/>
      <point x="501" y="355"/>
      <point x="501" y="378" type="curve"/>
      <point x="501" y="475"/>
      <point x="451" y="535"/>
      <point x="373" y="535" type="curve"/>
      <point x="306" y="535"/>
      <point x="250" y="495"/>
      <point x="214" y="421" type="curve"/>
      <point x="229" y="415" type="line"/>
      <point x="232" y="525" type="line"/>
      <point x="100" y="525" type="line"/>
      <point x="98" y="475" type="line" smooth="yes"/>
      <point x="97" y="447"/>
      <point x="95" y="426"/>
      <point x="90" y="401" type="curve" smooth="yes"/>
    </contour>
  </outline>
</glyph>
<glyph name="OE" format="1">
  <advance width="855.517420736217"/>
  <unicode hex="0152"/>
  <outline>
    <contour>
      <point x="47" y="281" type="curve" smooth="yes"/>
      <point x="47" y="96"/>
      <point x="149" y="0"/>
      <point x="296" y="0" type="curve" smooth="yes"/>
      <point x="368" y="0" type="line"/>
      <point x="400" y="134" type="line"/>
      <point x="324" y="134" type="line" smooth="yes"/>
      <point x="243" y="134"/>
      <point x="198" y="178"/>
      <point x="198" y="301" type="curve" smooth="yes"/>
      <point x="198" y="434"/>
      <point x="289" y="556"/>
      <point x="412" y="556" type="curve" smooth="yes"/>
      <point x="484" y="556" type="line"/>
      <point x="516" y="690" type="line"/>
      <point x="441" y="690" type="line" smooth="yes"/>
      <point x="215" y="690"/>
      <point x="47" y="516"/>
    </contour>
    <contour>
      <point x="349" y="0" type="line"/>
      <point x="495" y="0" type="line"/>
      <point x="642" y="690" type="line"/>
      <point x="496" y="690" type="line"/>
    </contour>
    <contour>
      <point x="396" y="0" type="line"/>
      <point x="751" y="0" type="line"/>
      <point x="779" y="134" type="line"/>
      <point x="428" y="134" type="line"/>
    </contour>
    <contour>
      <point x="456" y="285" type="line"/>
      <point x="767" y="285" type="line"/>
      <point x="793" y="411" type="line"/>
      <point x="486" y="411" type="line"/>
    </contour>
    <contour>
      <point x="515" y="556" type="line"/>
      <point x="864" y="556" type="line"/>
      <point x="893" y="690" type="line"/>
      <point x="544" y="690" type="line"/>
    </contour>
  </outline>
</glyph>
<glyph name="Scedilla" format="1">
  <advance width="535.4985125906962"/>
  <unicode hex="015E"/>
  <outline>
    <contour>
      <point x="-14" y="82" type="line"/>
      <point x="48" y="27"/>
      <point x="139" y="-12"/>
      <point x="239" y="-12" type="curve"/>
      <point x="390" y="-12"/>
      <point x="479" y="86"/>
      <point x="479" y="196" type="curve"/>
      <point x="479" y="272"/>
      <point x="443" y="341"/>
      <point x="329" y="415" type="curve" smooth="yes"/>
      <point x="258" y="461"/>
      <point x="246" y="488"/>
      <point x="246" y="512" type="curve"/>
      <point x="246" y="541"/>
      <point x="274" y="571"/>
      <point x="315" y="571" type="curve"/>
      <point x="364" y="571"/>
      <point x="421" y="545"/>
      <point x="469" y="506" type="curve"/>
      <point x="535" y="630" type="line"/>
      <point x="480" y="672"/>
      <point x="401" y="702"/>
      <point x="336" y="702" type="curve"/>
      <point x="190" y="702"/>
      <point x="96" y="611"/>
      <point x="96" y="496" type="curve"/>
      <point x="96" y="433"/>
      <point x="119" y="374"/>
      <point x="243" y="290" type="curve" smooth="yes"/>
      <point x="311" y="244"/>
      <point x="321" y="220"/>
      <point x="321" y="193" type="curve"/>
      <point x="321" y="157"/>
      <point x="296" y="123"/>
      <point x="236" y="123" type="curve"/>
      <point x="182" y="123"/>
      <point x="117" y="154"/>
      <point x="67" y="203" type="curve"/>
    </contour>
    <contour>
      <point x="114" y="-197" type="line"/>
      <point x="149" y="-197" type="line" smooth="yes"/>
      <point x="227" y="-197"/>
      <point x="287" y="-176"/>
      <point x="287" y="-108" type="curve" smooth="yes"/>
      <point x="287" y="-77"/>
      <point x="266" y="-54"/>
      <point x="234" y="-46" type="curve"/>
      <point x="252" y="9" type="line"/>
      <point x="192" y="15" type="line"/>
      <point x="152" y="-83" type="line"/>
      <point x="167" y="-85" type="line" smooth="yes"/>
      <point x="193" y="-88"/>
      <point x="200" y="-96"/>
      <point x="200" y="-108" type="curve"/>
      <point x="200" y="-124"/>
      <point x="187" y="-136"/>
      <point x="136" y="-136" type="curve"/>
    </contour>
  </outline>
</glyph>
<glyph name="scedilla" format="1">
  <advance width="407.50957043143154"/>
  <unicode hex="015F"/>
  <outline>
    <contour>
      <point x="-32" y="47" type="line"/>
      <point x="17" y="12"/>
      <point x="92" y="-12"/>
      <point x="159" y="-12" type="curve"/>
      <point x="289" y="-12"/>
      <point x="355" y="63"/>
      <point x="355" y="149" type="curve"/>
      <point x="355" y="213"/>
      <point x="328" y="263"/>
      <point x="233" y="328" type="curve" smooth="yes"/>
      <point x="201" y="350"/>
      <point x="192" y="365"/>
      <point x="192" y="379" type="curve" smooth="yes"/>
      <point x="192" y="399"/>
      <point x="207" y="414"/>
      <point x="230" y="414" type="curve"/>
      <point x="262" y="414"/>
      <point x="303" y="396"/>
      <point x="338" y="366" type="curve"/>
      <point x="399" y="489" type="line"/>
      <point x="360" y="516"/>
      <point x="302" y="537"/>
      <point x="245" y="537" type="curve"/>
      <point x="129" y="537"/>
      <point x="52" y="464"/>
      <point x="52" y="372" type="curve" smooth="yes"/>
      <point x="52" y="314"/>
      <point x="76" y="266"/>
      <point x="162" y="205" type="curve" smooth="yes"/>
      <point x="198" y="180"/>
      <point x="206" y="165"/>
      <point x="206" y="150" type="curve"/>
      <point x="206" y="132"/>
      <point x="191" y="118"/>
      <point x="165" y="118" type="curve"/>
      <point x="122" y="118"/>
      <point x="78" y="141"/>
      <point x="37" y="176" type="curve"/>
    </contour>
    <contour>
      <point x="35" y="-197" type="line"/>
      <point x="70" y="-197" type="line" smooth="yes"/>
      <point x="148" y="-197"/>
      <point x="208" y="-176"/>
      <point x="208" y="-108" type="curve" smooth="yes"/>
      <point x="208" y="-77"/>
      <point x="187" y="-54"/>
      <point x="155" y="-46" type="curve"/>
      <point x="173" y="9" type="line"/>
      <point x="113" y="15" type="line"/>
      <point x="73" y="-83" type="line"/>
      <point x="88" y="-85" type="line" smooth="yes"/>
      <point x="114" y="-88"/>
      <point x="121" y="-96"/>
      <point x="121" y="-108" type="curve"/>
      <point x="121" y="-124"/>
      <point x="108" y="-136"/>
      <point x="57" y="-136" type="curve"/>
    </contour>
  </outline>
</glyph>
<glyph name="Tcedilla" format="1">
  <advance width="498.33597244768475"/>
  <unicode hex="0162"/>
  <outline>
    <contour>
      <point x="78" y="556" type="line"/>
      <point x="536" y="556" type="line"/>
      <point x="565" y="690" type="line"/>
      <point x="107" y="690" type="line"/>
    </contour>
    <contour>
      <point x="116" y="0" type="line"/>
      <point x="262" y="0" type="line"/>
      <point x="409" y="690" type="line"/>
      <point x="263" y="690" type="line"/>
    </contour>
    <contour>
      <point x="88" y="-197" type="line"/>
      <point x="123" y="-197" type="line" smooth="yes"/>
      <point x="201" y="-197"/>
      <point x="261" y="-176"/>
      <point x="261" y="-108" type="curve" smooth="yes"/>
      <point x="261" y="-77"/>
      <point x="240" y="-54"/>
      <point x="208" y="-46" type="curve"/>
      <point x="226" y="9" type="line"/>
      <point x="166" y="15" type="line"/>
      <point x="126" y="-83" type="line"/>
      <point x="141" y="-85" type="line" smooth="yes"/>
      <point x="167" y="-88"/>
      <point x="174" y="-96"/>
      <point x="174" y="-108" type="curve"/>
      <point x="174" y="-124"/>
      <point x="161" y="-136"/>
      <point x="110" y="-136" type="curve"/>
    </contour>
  </outline>
</glyph>
<glyph name="tcedilla" format="1">
  <advance width="382.29954750663984"/>
  <unicode hex="0163"/>
  <outline>
    <contour>
      <point x="40" y="407" type="line"/>
      <point x="369" y="407" type="line"/>
      <point x="394" y="525" type="line"/>
      <point x="65" y="525" type="line"/>
    </contour>
    <contour>
      <point x="66" y="142" type="curve"/>
      <point x="66" y="44"/>
      <point x="116" y="-12"/>
      <point x="208" y="-12" type="curve"/>
      <point x="235" y="-12"/>
      <point x="272" y="-4"/>
      <point x="298" y="8" type="curve"/>
      <point x="296" y="136" type="line"/>
      <point x="278" y="127"/>
      <point x="257" y="122"/>
      <point x="243" y="122" type="curve"/>
      <point x="217" y="122"/>
      <point x="204" y="139"/>
      <point x="204" y="165" type="curve"/>
      <point x="204" y="175"/>
      <point x="205" y="182"/>
      <point x="207" y="191" type="curve" smooth="yes"/>
      <point x="307" y="661" type="line"/>
      <point x="165" y="641" type="line"/>
      <point x="72" y="200" type="line" smooth="yes"/>
      <point x="68" y="179"/>
      <point x="66" y="161"/>
    </contour>
    <contour>
      <point x="68" y="-197" type="line"/>
      <point x="103" y="-197" type="line" smooth="yes"/>
      <point x="181" y="-197"/>
      <point x="241" y="-176"/>
      <point x="241" y="-108" type="curve" smooth="yes"/>
      <point x="241" y="-77"/>
      <point x="220" y="-54"/>
      <point x="188" y="-46" type="curve"/>
      <point x="206" y="9" type="line"/>
      <point x="146" y="15" type="line"/>
      <point x="106" y="-83" type="line"/>
      <point x="121" y="-85" type="line" smooth="yes"/>
      <point x="147" y="-88"/>
      <point x="154" y="-96"/>
      <point x="154" y="-108" type="curve"/>
      <point x="154" y="-124"/>
      <point x="141" y="-136"/>
      <point x="90" y="-136" type="curve"/>
    </contour>
  </outline>
</glyph>
<glyph name="tbar" format="1">
  <advance width="382.29954750663984"/>
  <unicode hex="0167"/>
  <outline>
    <contour>
      <point x="5" y="212" type="line"/>
      <point x="325" y="212" type="line"/>
      <point x="351" y="332" type="line"/>
      <point x="31" y="332" type="line"/>
    </contour>
    <contour>
      <point x="40" y="407" type="line"/>
      <point x="369" y="407" type="line"/>
      <point x="394" y="525" type="line"/>
      <point x="65" y="525" type="line"/>
    </contour>
    <contour>
      <point x="66" y="142" type="curve"/>
      <point x="66" y="44"/>
      <point x="116" y="-10"/>
      <point x="208" y="-10" type="curve"/>
      <point x="235" y="-10"/>
      <point x="272" y="-2"/>
      <point x="298" y="10" type="curve"/>
      <point x="296" y="138" type="line"/>
      <point x="278" y="129"/>
      <point x="257" y="124"/>
      <point x="243" y="124" type="curve"/>
      <point x="217" y="124"/>
      <point x="204" y="139"/>
      <point x="204" y="165" type="curve"/>
      <point x="204" y="175"/>
      <point x="205" y="182"/>
      <point x="207" y="191" type="curve" smooth="yes"/>
      <point x="307" y="661" type="line"/>
      <point x="165" y="641" type="line"/>
      <point x="72" y="200" type="line" smooth="yes"/>
      <point x="68" y="179"/>
      <point x="66" y="161"/>
    </contour>
  </outline>
</glyph>
<glyph name="Uogonek" format="1">
  <advance width="613.3359724476848"/>
  <unicode hex="0172"/>
  <outline>
    <contour>
      <point x="376" y="-168" type="curve"/>
      <point x="355" y="-98" type="line"/>
      <point x="340" y="-110"/>
      <point x="329" y="-115"/>
      <point x="318" y="-115" type="curve"/>
      <point x="305" y="-115"/>
      <point x="300" y="-107"/>
      <point x="300" y="-96" type="curve" smooth="yes"/>
      <point x="300" y="-77"/>
      <point x="310" y="-39"/>
      <point x="394" y="18" type="curve" smooth="yes"/>
      <point x="462" y="64"/>
      <point x="521" y="133"/>
      <point x="548" y="259" type="curve" smooth="yes"/>
      <point x="640" y="690" type="line"/>
      <point x="498" y="690" type="line"/>
      <point x="412" y="288" type="line" smooth="yes"/>
      <point x="386" y="165"/>
      <point x="339" y="127"/>
      <point x="284" y="127" type="curve"/>
      <point x="235" y="127"/>
      <point x="200" y="159"/>
      <point x="200" y="220" type="curve"/>
      <point x="200" y="242"/>
      <point x="203" y="267"/>
      <point x="207" y="288" type="curve" smooth="yes"/>
      <point x="293" y="690" type="line"/>
      <point x="147" y="690" type="line"/>
      <point x="65" y="307" type="line" smooth="yes"/>
      <point x="57" y="269"/>
      <point x="54" y="237"/>
      <point x="54" y="206" type="curve"/>
      <point x="54" y="82"/>
      <point x="138" y="-10"/>
      <point x="266" y="-10" type="curve"/>
      <point x="270" y="-10"/>
      <point x="274" y="-10"/>
      <point x="278" y="-10" type="curve"/>
      <point x="241" y="-37"/>
      <point x="218" y="-80"/>
      <point x="218" y="-117" type="curve"/>
      <point x="218" y="-161"/>
      <point x="246" y="-195"/>
      <point x="294" y="-195" type="curve"/>
      <point x="324" y="-195"/>
      <point x="357" y="-182"/>
    </contour>
  </outline>
</glyph>
<glyph name="Schwa" format="1">
  <advance width="615.279449233831"/>
  <unicode hex="018F"/>
  <outline>
    <contour>
      <point x="41" y="248" type="curve"/>
      <point x="41" y="96"/>
      <point x="117" y="-10"/>
      <point x="274" y="-10" type="curve"/>
      <point x="476" y="-10"/>
      <point x="594" y="189"/>
      <point x="594" y="398" type="curve"/>
      <point x="594" y="599"/>
      <point x="491" y="700"/>
      <point x="340" y="700" type="curve"/>
      <point x="273" y="700"/>
      <point x="189" y="672"/>
      <point x="138" y="636" type="curve"/>
      <point x="175" y="507" type="line"/>
      <point x="216" y="536"/>
      <point x="269" y="558"/>
      <point x="326" y="558" type="curve" smooth="yes"/>
      <point x="401" y="558"/>
      <point x="447" y="512"/>
      <point x="447" y="399" type="curve"/>
      <point x="447" y="244"/>
      <point x="393" y="125"/>
      <point x="285" y="125" type="curve"/>
      <point x="226" y="125"/>
      <point x="185" y="172"/>
      <point x="186" y="257" type="curve" smooth="yes"/>
      <point x="187" y="290"/>
      <point x="192" y="316"/>
      <point x="199" y="344" type="curve"/>
      <point x="150" y="281" type="line"/>
      <point x="460" y="281" type="line"/>
      <point x="487" y="397" type="line"/>
      <point x="62" y="397" type="line"/>
      <point x="48" y="355"/>
      <point x="41" y="309"/>
    </contour>
  </outline>
</glyph>
<glyph name="florin" format="1">
  <advance width="500"/>
  <unicode hex="0192"/>
  <outline>
    <contour>
      <point x="-52" y="-178" type="line"/>
      <point x="-24" y="-190"/>
      <point x="11" y="-197"/>
      <point x="47" y="-197" type="curve"/>
      <point x="154" y="-197"/>
      <point x="221.0" y="-137"/>
      <point x="250.0" y="-1" type="curve" smooth="yes"/>
      <point x="361.0" y="522" type="line" smooth="yes"/>
      <point x="373.0" y="577"/>
      <point x="399" y="605"/>
      <point x="436" y="605" type="curve"/>
      <point x="451" y="605"/>
      <point x="467" y="602"/>
      <point x="485" y="593" type="curve"/>
      <point x="528" y="713" type="line"/>
      <point x="500" y="725"/>
      <point x="465" y="732"/>
      <point x="429" y="732" type="curve"/>
      <point x="322" y="732"/>
      <point x="255.0" y="672"/>
      <point x="226.0" y="536" type="curve" smooth="yes"/>
      <point x="115.0" y="13" type="line" smooth="yes"/>
      <point x="103.0" y="-42"/>
      <point x="77" y="-70"/>
      <point x="40" y="-70" type="curve"/>
      <point x="25" y="-70"/>
      <point x="9" y="-67"/>
      <point x="-9" y="-58" type="curve"/>
    </contour>
    <contour>
      <point x="122" y="407" type="line"/>
      <point x="447" y="407" type="line"/>
      <point x="472" y="525" type="line"/>
      <point x="147" y="525" type="line"/>
    </contour>
  </outline>
</glyph>
<glyph name="Nhookleft" format="1">
  <advance width="638.3359724476848"/>
  <unicode hex="019D"/>
  <outline>
    <contour>
      <point x="-136" y="-177" type="line"/>
      <point x="-115" y="-187"/>
      <point x="-82" y="-195"/>
      <point x="-50" y="-195" type="curve"/>
      <point x="50" y="-195"/>
      <point x="111" y="-133"/>
      <point x="140" y="1" type="curve" smooth="yes"/>
      <point x="289" y="690" type="line"/>
      <point x="157" y="690" type="line"/>
      <point x="11" y="5" type="line" smooth="yes"/>
      <point x="0" y="-46"/>
      <point x="-26" y="-71"/>
      <point x="-60" y="-71" type="curve"/>
      <point x="-73" y="-71"/>
      <point x="-88" y="-66"/>
      <point x="-101" y="-59" type="curve"/>
    </contour>
    <contour>
      <point x="210" y="690" type="line"/>
      <point x="339" y="0" type="line"/>
      <point x="467" y="0" type="line"/>
      <point x="338" y="690" type="line"/>
    </contour>
    <contour>
      <point x="378" y="0" type="line"/>
      <point x="508" y="0" type="line"/>
      <point x="655" y="690" type="line"/>
      <point x="525" y="690" type="line"/>
    </contour>
  </outline>
</glyph>
<glyph name="Oogonek" format="1">
  <advance width="626.7581071566487"/>
  <unicode hex="01EA"/>
  <outline>
    <contour>
      <point x="371" y="-168" type="curve"/>
      <point x="350" y="-98" type="line"/>
      <point x="335" y="-110"/>
      <point x="324" y="-115"/>
      <point x="313" y="-115" type="curve"/>
      <point x="300" y="-115"/>
      <point x="295" y="-107"/>
      <point x="295" y="-96" type="curve" smooth="yes"/>
      <point x="295" y="-76"/>
      <point x="309" y="-35"/>
      <point x="410" y="36" type="curve" smooth="yes"/>
      <point x="523" y="115"/>
      <point x="612" y="263"/>
      <point x="612" y="448" type="curve"/>
      <point x="612" y="599"/>
      <point x="527" y="700"/>
      <point x="401" y="700" type="curve"/>
      <point x="210" y="700"/>
      <point x="42" y="503"/>
      <point x="42" y="243" type="curve"/>
      <point x="42" y="91"/>
      <point x="127" y="-10"/>
      <point x="254" y="-10" type="curve"/>
      <point x="260" y="-10"/>
      <point x="267" y="-10"/>
      <point x="273" y="-9" type="curve"/>
      <point x="236" y="-36"/>
      <point x="213" y="-80"/>
      <point x="213" y="-117" type="curve"/>
      <point x="213" y="-161"/>
      <point x="241" y="-195"/>
      <point x="289" y="-195" type="curve"/>
      <point x="319" y="-195"/>
      <point x="352" y="-182"/>
    </contour>
    <contour>
      <point x="193" y="258" type="curve"/>
      <point x="193" y="444"/>
      <point x="282" y="563"/>
      <point x="373" y="563" type="curve"/>
      <point x="428" y="563"/>
      <point x="461" y="520"/>
      <point x="461" y="433" type="curve"/>
      <point x="461" y="246"/>
      <point x="371" y="127"/>
      <point x="281" y="127" type="curve"/>
      <point x="225" y="127"/>
      <point x="193" y="170"/>
    </contour>
  </outline>
</glyph>
<glyph name="oogonek" format="1">
  <advance width="485.1931563019083"/>
  <unicode hex="01EB"/>
  <outline>
    <contour>
      <point x="283" y="-168" type="curve"/>
      <point x="262" y="-98" type="line"/>
      <point x="247" y="-110"/>
      <point x="236" y="-115"/>
      <point x="225" y="-115" type="curve"/>
      <point x="212" y="-115"/>
      <point x="207" y="-107"/>
      <point x="207" y="-96" type="curve" smooth="yes"/>
      <point x="207" y="-77"/>
      <point x="221" y="-42"/>
      <point x="310" y="25" type="curve" smooth="yes"/>
      <point x="394" y="88"/>
      <point x="459" y="203"/>
      <point x="459" y="347" type="curve"/>
      <point x="459" y="455"/>
      <point x="390" y="535"/>
      <point x="291" y="535" type="curve"/>
      <point x="142" y="535"/>
      <point x="18" y="383"/>
      <point x="18" y="178" type="curve"/>
      <point x="18" y="70"/>
      <point x="88" y="-10"/>
      <point x="186" y="-10" type="curve"/>
      <point x="188" y="-10"/>
      <point x="189" y="-10"/>
      <point x="191" y="-10" type="curve"/>
      <point x="148" y="-37"/>
      <point x="125" y="-80"/>
      <point x="125" y="-117" type="curve"/>
      <point x="125" y="-161"/>
      <point x="153" y="-195"/>
      <point x="201" y="-195" type="curve"/>
      <point x="231" y="-195"/>
      <point x="264" y="-182"/>
    </contour>
    <contour>
      <point x="160" y="196" type="curve"/>
      <point x="160" y="334"/>
      <point x="224" y="410"/>
      <point x="268" y="410" type="curve"/>
      <point x="299" y="410"/>
      <point x="317" y="385"/>
      <point x="317" y="329" type="curve"/>
      <point x="317" y="191"/>
      <point x="254" y="115"/>
      <point x="208" y="115" type="curve"/>
      <point x="179" y="115"/>
      <point x="160" y="140"/>
    </contour>
  </outline>
</glyph>
<glyph name="dotlessj" format="1">
  <advance width="261.4078051232384"/>
  <unicode hex="0237"/>
  <outline>
    <contour>
      <point x="-144" y="-177" type="line"/>
      <point x="-123" y="-187"/>
      <point x="-90" y="-195"/>
      <point x="-58" y="-195" type="curve"/>
      <point x="42" y="-195"/>
      <point x="110" y="-133"/>
      <point x="139" y="1" type="curve" smooth="yes"/>
      <point x="251" y="525" type="line"/>
      <point x="114" y="525" type="line"/>
      <point x="3" y="5" type="line" smooth="yes"/>
      <point x="-8" y="-46"/>
      <point x="-34" y="-71"/>
      <point x="-68" y="-71" type="curve"/>
      <point x="-81" y="-71"/>
      <point x="-96" y="-66"/>
      <point x="-109" y="-59" type="curve"/>
    </contour>
    <contour>
      <point x="183" y="525" type="move" name="top"/>
    </contour>
  </outline>
</glyph>
<glyph name="nhookleft" format="1">
  <advance width="544.1320939052986"/>
  <unicode hex="0272"/>
  <outline>
    <contour>
      <point x="-141" y="-177" type="line"/>
      <point x="-120" y="-187"/>
      <point x="-87" y="-195"/>
      <point x="-55" y="-195" type="curve"/>
      <point x="45" y="-195"/>
      <point x="114" y="-133"/>
      <point x="142" y="1" type="curve" smooth="yes"/>
      <point x="190" y="228" type="line" smooth="yes"/>
      <point x="215" y="348"/>
      <point x="269" y="398"/>
      <point x="316" y="398" type="curve"/>
      <point x="344" y="398"/>
      <point x="361" y="381"/>
      <point x="361" y="349" type="curve" smooth="yes"/>
      <point x="361" y="336"/>
      <point x="359" y="322"/>
      <point x="357" y="312" type="curve" smooth="yes"/>
      <point x="291" y="0" type="line"/>
      <point x="428" y="0" type="line"/>
      <point x="494" y="310" type="line" smooth="yes"/>
      <point x="499" y="332"/>
      <point x="501" y="355"/>
      <point x="501" y="378" type="curve"/>
      <point x="501" y="475"/>
      <point x="451" y="535"/>
      <point x="373" y="535" type="curve"/>
      <point x="306" y="535"/>
      <point x="250" y="495"/>
      <point x="214" y="421" type="curve"/>
      <point x="229" y="415" type="line"/>
      <point x="232" y="525" type="line"/>
      <point x="100" y="525" type="line"/>
      <point x="98" y="475" type="line" smooth="yes"/>
      <point x="97" y="447"/>
      <point x="95" y="426"/>
      <point x="90" y="401" type="curve" smooth="yes"/>
      <point x="6" y="5" type="line" smooth="yes"/>
      <point x="-5" y="-46"/>
      <point x="-31" y="-71"/>
      <point x="-65" y="-71" type="curve"/>
      <point x="-78" y="-71"/>
      <point x="-93" y="-66"/>
      <point x="-106" y="-59" type="curve"/>
    </contour>
  </outline>
</glyph>
<glyph name="circumflex" format="1">
  <advance width="500"/>
  <unicode hex="02C6"/>
  <outline>
    <contour>
      <point x="167" y="601" type="line"/>
      <point x="276" y="601" type="line"/>
      <point x="410" y="751" type="line"/>
      <point x="286" y="751" type="line"/>
    </contour>
    <contour>
      <point x="284" y="751" type="line"/>
      <point x="363" y="601" type="line"/>
      <point x="468" y="601" type="line"/>
      <point x="410" y="751" type="line"/>
    </contour>
    <contour>
      <point x="302" y="525" type="move" name="_top"/>
    </contour>
  </outline>
</glyph>
<glyph name="caron" format="1">
  <advance width="500"/>
  <unicode hex="02C7"/>
  <outline>
    <contour>
      <point x="198" y="751" type="line"/>
      <point x="257" y="601" type="line"/>
      <point x="382" y="601" type="line"/>
      <point x="304" y="751" type="line"/>
    </contour>
    <contour>
      <point x="256" y="601" type="line"/>
      <point x="381" y="601" type="line"/>
      <point x="500" y="751" type="line"/>
      <point x="390" y="751" type="line"/>
    </contour>
    <contour>
      <point x="302" y="525" type="move" name="_top"/>
    </contour>
  </outline>
</glyph>
<glyph name="macronmod" format="1">
  <advance width="0"/>
  <unicode hex="02C9"/>
  <outline>
    <component base="macron" xOffset="-239"/>
    <contour>
      <point x="51" y="525" type="move" name="_top"/>
    </contour>
  </outline>
</glyph>
<glyph name="breve" format="1">
  <advance width="500"/>
  <unicode hex="02D8"/>
  <outline>
    <contour>
      <point x="216" y="715" type="curve" smooth="yes"/>
      <point x="216" y="640"/>
      <point x="260" y="590"/>
      <point x="324" y="590" type="curve"/>
      <point x="404" y="590"/>
      <point x="458" y="645"/>
      <point x="477" y="751" type="curve"/>
      <point x="401" y="751" type="line"/>
      <point x="390" y="712"/>
      <point x="372" y="688"/>
      <point x="337" y="688" type="curve" smooth="yes"/>
      <point x="307" y="688"/>
      <point x="295" y="708"/>
      <point x="295" y="743" type="curve" smooth="yes"/>
      <point x="295" y="746"/>
      <point x="295" y="749"/>
      <point x="295" y="751" type="curve"/>
      <point x="220" y="751" type="line"/>
      <point x="217" y="738"/>
      <point x="216" y="726"/>
    </contour>
    <contour>
      <point x="302" y="525" type="move" name="_top"/>
    </contour>
  </outline>
</glyph>
<glyph name="ring" format="1">
  <advance width="500"/>
  <unicode hex="02DA"/>
  <outline>
    <contour>
      <point x="229" y="691" type="curve" smooth="yes"/>
      <point x="229" y="628"/>
      <point x="269" y="591"/>
      <point x="323" y="591" type="curve"/>
      <point x="390" y="591"/>
      <point x="450" y="651"/>
      <point x="450" y="729" type="curve" smooth="yes"/>
      <point x="450" y="791"/>
      <point x="410" y="830"/>
      <point x="356" y="830" type="curve"/>
      <point x="290" y="830"/>
      <point x="229" y="769"/>
    </contour>
    <contour>
      <point x="299" y="699" type="curve"/>
      <point x="299" y="734"/>
      <point x="322" y="757"/>
      <point x="346" y="757" type="curve" smooth="yes"/>
      <point x="365" y="757"/>
      <point x="379" y="743"/>
      <point x="379" y="722" type="curve"/>
      <point x="379" y="687"/>
      <point x="355" y="664"/>
      <point x="331" y="664" type="curve" smooth="yes"/>
      <point x="314" y="664"/>
      <point x="299" y="677"/>
    </contour>
    <contour>
      <point x="302" y="525" type="move" name="_top"/>
    </contour>
  </outline>
</glyph>
<glyph name="hungarumlaut" format="1">
  <advance width="500"/>
  <unicode hex="02DD"/>
  <outline>
    <contour>
      <point x="185" y="601" type="line"/>
      <point x="274" y="601" type="line"/>
      <point x="388" y="751" type="line"/>
      <point x="262" y="751" type="line"/>
    </contour>
    <contour>
      <point x="339" y="601" type="line"/>
      <point x="429" y="601" type="line"/>
      <point x="552" y="751" type="line"/>
      <point x="426" y="751" type="line"/>
    </contour>
    <contour>
      <point x="302" y="525" type="move" name="_top"/>
    </contour>
  </outline>
</glyph>
<glyph name="Delta" format="1">
  <advance width="563.0"/>
  <unicode hex="0394"/>
  <outline>
    <contour>
      <point x="-60" y="0" type="line"/>
      <point x="102" y="0" type="line"/>
      <point x="354" y="542" type="line"/>
      <point x="374" y="690" type="line"/>
      <point x="309" y="690" type="line"/>
    </contour>
    <contour>
      <point x="40" y="0" type="line"/>
      <point x="403" y="0" type="line"/>
      <point x="436" y="134" type="line"/>
      <point x="72" y="134" type="line"/>
    </contour>
    <contour>
      <point x="322" y="542" type="line"/>
      <point x="350" y="0" type="line"/>
      <point x="503" y="0" type="line"/>
      <point x="430" y="690" type="line"/>
      <point x="357" y="690" type="line"/>
    </contour>
  </outline>
</glyph>
<glyph name="Omega" format="1">
  <advance width="610.4304297912472"/>
  <unicode hex="03A9"/>
  <outline>
    <contour>
      <point x="-2" y="0" type="line"/>
      <point x="185" y="0" type="line"/>
      <point x="221" y="154" type="line"/>
      <point x="207" y="192"/>
      <point x="202" y="239"/>
      <point x="202" y="292" type="curve"/>
      <point x="202" y="462"/>
      <point x="276" y="560"/>
      <point x="358" y="560" type="curve"/>
      <point x="414" y="560"/>
      <point x="443" y="511"/>
      <point x="443" y="426" type="curve" smooth="yes"/>
      <point x="443" y="333"/>
      <point x="397" y="212"/>
      <point x="341" y="150" type="curve"/>
      <point x="305" y="0" type="line"/>
      <point x="492" y="0" type="line"/>
      <point x="522" y="125" type="line"/>
      <point x="383" y="125" type="line"/>
      <point x="322" y="56" type="line"/>
      <point x="455" y="117"/>
      <point x="585" y="277"/>
      <point x="585" y="463" type="curve" smooth="yes"/>
      <point x="585" y="613"/>
      <point x="499" y="702"/>
      <point x="375" y="702" type="curve"/>
      <point x="207" y="702"/>
      <point x="75" y="550"/>
      <point x="75" y="338" type="curve" smooth="yes"/>
      <point x="75" y="201"/>
      <point x="130" y="113"/>
      <point x="195" y="66" type="curve"/>
      <point x="167" y="125" type="line"/>
      <point x="27" y="125" type="line"/>
    </contour>
  </outline>
</glyph>
<glyph name="pi" format="1">
  <advance width="535"/>
  <unicode hex="03C0"/>
  <outline>
    <contour>
      <point x="24" y="0" type="line"/>
      <point x="161" y="0" type="line"/>
      <point x="273" y="526" type="line"/>
      <point x="136" y="526" type="line"/>
    </contour>
    <contour>
      <point x="59" y="401" type="line"/>
      <point x="522" y="401" type="line"/>
      <point x="549" y="526" type="line"/>
      <point x="86" y="526" type="line"/>
    </contour>
    <contour>
      <point x="282" y="135" type="line" smooth="yes"/>
      <point x="258.25" y="30.5"/>
      <point x="299" y="-12"/>
      <point x="367" y="-12" type="curve"/>
      <point x="384" y="-12"/>
      <point x="408" y="-7"/>
      <point x="423" y="0" type="curve"/>
      <point x="450" y="124" type="line"/>
      <point x="444" y="122"/>
      <point x="440" y="121"/>
      <point x="435" y="121" type="curve" smooth="yes"/>
      <point x="421" y="121"/>
      <point x="418" y="134"/>
      <point x="425" y="167" type="curve" smooth="yes"/>
      <point x="502" y="526" type="line"/>
      <point x="365" y="526" type="line"/>
    </contour>
  </outline>
</glyph>
<glyph name="quoteleft" format="1">
  <advance width="244"/>
  <unicode hex="2018"/>
  <outline>
    <contour>
      <point x="285" y="720" type="line"/>
      <point x="205" y="720" type="line"/>
      <point x="128" y="587" type="line" smooth="yes"/>
      <point x="98" y="535"/>
      <point x="68" y="485"/>
      <point x="68" y="440" type="curve" smooth="yes"/>
      <point x="68" y="400"/>
      <point x="100" y="368"/>
      <point x="142" y="368" type="curve" smooth="yes"/>
      <point x="200" y="368"/>
      <point x="250" y="413"/>
      <point x="250" y="475" type="curve" smooth="yes"/>
      <point x="250" y="505"/>
      <point x="233" y="530"/>
      <point x="204" y="543" type="curve"/>
    </contour>
  </outline>
</glyph>
<glyph name="quoteright" format="1">
  <advance width="244.23664831880808"/>
  <unicode hex="2019"/>
  <outline>
    <contour>
      <point x="73" y="380" type="line"/>
      <point x="153" y="380" type="line"/>
      <point x="230" y="513" type="line" smooth="yes"/>
      <point x="260" y="565"/>
      <point x="290" y="615"/>
      <point x="290" y="660" type="curve" smooth="yes"/>
      <point x="290" y="700"/>
      <point x="258" y="732"/>
      <point x="216" y="732" type="curve" smooth="yes"/>
      <point x="158" y="732"/>
      <point x="108" y="687"/>
      <point x="108" y="625" type="curve" smooth="yes"/>
      <point x="108" y="595"/>
      <point x="125" y="570"/>
      <point x="154" y="557" type="curve"/>
    </contour>
  </outline>
</glyph>
<glyph name="daggerdbl" format="1">
  <advance width="412.72997729788705"/>
  <unicode hex="2021"/>
  <outline>
    <contour>
      <point x="-33" y="9" type="line"/>
      <point x="328" y="9" type="line"/>
      <point x="354" y="133" type="line"/>
      <point x="-7" y="133" type="line"/>
    </contour>
    <contour>
      <point x="50" y="402" type="line"/>
      <point x="411" y="402" type="line"/>
      <point x="438" y="525" type="line"/>
      <point x="77" y="525" type="line"/>
    </contour>
    <contour>
      <point x="43" y="-185" type="line"/>
      <point x="171" y="-185" type="line"/>
      <point x="363" y="720" type="line"/>
      <point x="235" y="720" type="line"/>
    </contour>
  </outline>
</glyph>
<glyph name="perthousand" format="1">
  <advance width="1194.4728742314244"/>
  <unicode hex="2030"/>
  <outline>
    <contour>
      <point x="106" y="490" type="curve"/>
      <point x="106" y="395"/>
      <point x="157" y="335"/>
      <point x="238" y="335" type="curve"/>
      <point x="356" y="335"/>
      <point x="414" y="448"/>
      <point x="414" y="545" type="curve"/>
      <point x="414" y="640"/>
      <point x="362" y="700"/>
      <point x="281" y="700" type="curve"/>
      <point x="175" y="700"/>
      <point x="106" y="593"/>
    </contour>
    <contour>
      <point x="205" y="494" type="curve" smooth="yes"/>
      <point x="205" y="553"/>
      <point x="231" y="603"/>
      <point x="273" y="603" type="curve"/>
      <point x="302" y="603"/>
      <point x="318" y="579"/>
      <point x="318" y="539" type="curve" smooth="yes"/>
      <point x="318" y="481"/>
      <point x="292" y="433"/>
      <point x="251" y="433" type="curve"/>
      <point x="221" y="433"/>
      <point x="205" y="456"/>
    </contour>
    <contour>
      <point x="109" y="0" type="line"/>
      <point x="236" y="0" type="line"/>
      <point x="763" y="690" type="line"/>
      <point x="636" y="690" type="line"/>
    </contour>
    <contour>
      <point x="457" y="145" type="curve"/>
      <point x="457" y="50"/>
      <point x="508" y="-10"/>
      <point x="589" y="-10" type="curve"/>
      <point x="707" y="-10"/>
      <point x="765" y="103"/>
      <point x="765" y="200" type="curve"/>
      <point x="765" y="295"/>
      <point x="713" y="355"/>
      <point x="632" y="355" type="curve"/>
      <point x="526" y="355"/>
      <point x="457" y="248"/>
    </contour>
    <contour>
      <point x="556" y="149" type="curve" smooth="yes"/>
      <point x="556" y="208"/>
      <point x="582" y="258"/>
      <point x="624" y="258" type="curve"/>
      <point x="653" y="258"/>
      <point x="669" y="234"/>
      <point x="669" y="194" type="curve" smooth="yes"/>
      <point x="669" y="136"/>
      <point x="643" y="88"/>
      <point x="602" y="88" type="curve"/>
      <point x="572" y="88"/>
      <point x="556" y="111"/>
    </contour>
    <contour>
      <point x="807" y="145" type="curve"/>
      <point x="807" y="50"/>
      <point x="858" y="-10"/>
      <point x="939" y="-10" type="curve"/>
      <point x="1057" y="-10"/>
      <point x="1115" y="103"/>
      <point x="1115" y="200" type="curve"/>
      <point x="1115" y="295"/>
      <point x="1063" y="355"/>
      <point x="982" y="355" type="curve"/>
      <point x="876" y="355"/>
      <point x="807" y="248"/>
    </contour>
    <contour>
      <point x="906" y="149" type="curve" smooth="yes"/>
      <point x="906" y="208"/>
      <point x="932" y="258"/>
      <point x="974" y="258" type="curve"/>
      <point x="1003" y="258"/>
      <point x="1019" y="234"/>
      <point x="1019" y="194" type="curve" smooth="yes"/>
      <point x="1019" y="136"/>
      <point x="993" y="88"/>
      <point x="952" y="88" type="curve"/>
      <point x="922" y="88"/>
      <point x="906" y="111"/>
    </contour>
  </outline>
</glyph>
<glyph name="guilsinglleft" format="1">
  <advance width="266.29502257303807"/>
  <unicode hex="2039"/>
  <outline>
    <contour>
      <point x="18" y="240" type="line"/>
      <point x="74" y="88" type="line"/>
      <point x="207" y="88" type="line"/>
      <point x="130" y="308" type="line"/>
      <point x="34" y="314" type="line"/>
    </contour>
    <contour>
      <point x="18" y="240" type="line"/>
      <point x="139" y="257" type="line"/>
      <point x="283" y="464" type="line"/>
      <point x="138" y="464" type="line"/>
      <point x="34" y="314" type="line"/>
    </contour>
  </outline>
</glyph>
<glyph name="guilsinglright" format="1">
  <advance width="266.29502257303807"/>
  <unicode hex="203A"/>
  <outline>
    <contour>
      <point x="-19" y="88" type="line"/>
      <point x="126" y="88" type="line"/>
      <point x="230" y="238" type="line"/>
      <point x="246" y="312" type="line"/>
      <point x="125" y="295" type="line"/>
    </contour>
    <contour>
      <point x="57" y="464" type="line"/>
      <point x="134" y="244" type="line"/>
      <point x="230" y="238" type="line"/>
      <point x="246" y="312" type="line"/>
      <point x="190" y="464" type="line"/>
    </contour>
  </outline>
</glyph>
<glyph name="litre" format="1">
  <advance width="425"/>
  <unicode hex="2113"/>
  <outline>
    <contour>
      <point x="9" y="254" type="curve"/>
      <point x="24" y="149" type="line"/>
      <point x="244" y="185"/>
      <point x="473" y="343"/>
      <point x="473" y="566" type="curve" smooth="yes"/>
      <point x="473" y="682"/>
      <point x="412" y="730"/>
      <point x="330" y="730" type="curve"/>
      <point x="219" y="730"/>
      <point x="159" y="663"/>
      <point x="133" y="539" type="curve" smooth="yes"/>
      <point x="59" y="184" type="line" smooth="yes"/>
      <point x="30" y="44"/>
      <point x="89.61797752808988" y="-10.0"/>
      <point x="184" y="-10" type="curve" smooth="yes"/>
      <point x="216" y="-10"/>
      <point x="261" y="-1"/>
      <point x="292" y="11" type="curve"/>
      <point x="291" y="144" type="line"/>
      <point x="272" y="135"/>
      <point x="250" y="129"/>
      <point x="236" y="129" type="curve"/>
      <point x="204.55172413793105" y="129.0"/>
      <point x="186.33333333333334" y="145.88888888888886"/>
      <point x="199" y="205" type="curve" smooth="yes"/>
      <point x="266" y="524" type="line" smooth="yes"/>
      <point x="278" y="580"/>
      <point x="296" y="607"/>
      <point x="318" y="607" type="curve" smooth="yes"/>
      <point x="335" y="607"/>
      <point x="346" y="592"/>
      <point x="346" y="553" type="curve" smooth="yes"/>
      <point x="346" y="432"/>
      <point x="211" y="286"/>
    </contour>
  </outline>
</glyph>
<glyph name="estimated" format="1">
  <advance width="612.0403327398338"/>
  <unicode hex="212E"/>
  <outline>
    <contour>
      <point x="60" y="238" type="curve" smooth="yes"/>
      <point x="60" y="75"/>
      <point x="134" y="-10"/>
      <point x="261" y="-10" type="curve" smooth="yes"/>
      <point x="339" y="-10"/>
      <point x="416" y="19"/>
      <point x="478" y="63" type="curve"/>
      <point x="457" y="116" type="line"/>
      <point x="406" y="80"/>
      <point x="343" y="50"/>
      <point x="277" y="50" type="curve" smooth="yes"/>
      <point x="168" y="50"/>
      <point x="112" y="117"/>
      <point x="112" y="249" type="curve" smooth="yes"/>
      <point x="112" y="442"/>
      <point x="249" y="642"/>
      <point x="389" y="642" type="curve" smooth="yes"/>
      <point x="491" y="642"/>
      <point x="528" y="573"/>
      <point x="528" y="445" type="curve" smooth="yes"/>
      <point x="528" y="418"/>
      <point x="524" y="388"/>
      <point x="517" y="356" type="curve"/>
      <point x="537" y="390" type="line"/>
      <point x="108" y="390" type="line"/>
      <point x="95" y="330" type="line"/>
      <point x="561" y="330" type="line"/>
      <point x="573" y="372"/>
      <point x="582" y="420"/>
      <point x="582" y="458" type="curve" smooth="yes"/>
      <point x="582" y="613"/>
      <point x="508" y="700"/>
      <point x="402" y="700" type="curve" smooth="yes"/>
      <point x="210" y="700"/>
      <point x="60" y="458"/>
    </contour>
    <contour>
      <point x="73" y="221" type="line"/>
      <point x="160" y="81" type="line"/>
      <point x="272" y="607" type="line"/>
      <point x="128" y="481" type="line"/>
    </contour>
    <contour>
      <point x="424" y="351" type="line"/>
      <point x="540" y="351" type="line"/>
      <point x="567" y="481" type="line"/>
      <point x="481" y="623" type="line"/>
    </contour>
  </outline>
</glyph>
<glyph name="summation" format="1">
  <advance width="559.8403846451711"/>
  <unicode hex="2211"/>
  <outline>
    <contour>
      <point x="-22" y="-185" type="line"/>
      <point x="401" y="-185" type="line"/>
      <point x="429" y="-51" type="line"/>
      <point x="51" y="-51" type="line"/>
      <point x="-2" y="-89" type="line"/>
    </contour>
    <contour>
      <point x="-2" y="-89" type="line"/>
      <point x="136" y="-116" type="line"/>
      <point x="412" y="256" type="line"/>
      <point x="264" y="280" type="line"/>
    </contour>
    <contour>
      <point x="144" y="594" type="line"/>
      <point x="261" y="270" type="line"/>
      <point x="412" y="256" type="line"/>
      <point x="278" y="631" type="line"/>
    </contour>
    <contour>
      <point x="144" y="594" type="line"/>
      <point x="175" y="556" type="line"/>
      <point x="553" y="556" type="line"/>
      <point x="582" y="690" type="line"/>
      <point x="165" y="690" type="line"/>
    </contour>
  </outline>
</glyph>
<glyph name="bulletoperator" format="1">
  <advance width="500"/>
  <unicode hex="2219"/>
  <outline>
    <contour>
      <point x="137" y="270" type="curve" smooth="yes"/>
      <point x="137" y="213"/>
      <point x="177.0" y="170"/>
      <point x="232.0" y="170" type="curve"/>
      <point x="304.0" y="170"/>
      <point x="366" y="231"/>
      <point x="366" y="310" type="curve" smooth="yes"/>
      <point x="366" y="367"/>
      <point x="327" y="410"/>
      <point x="270" y="410" type="curve"/>
      <point x="199" y="410"/>
      <point x="137" y="349"/>
    </contour>
  </outline>
</glyph>
<glyph name="radical" format="1">
  <advance width="631.3359724476848"/>
  <unicode hex="221A"/>
  <outline>
    <contour>
      <point x="2" y="206" type="line"/>
      <point x="167" y="206" type="line"/>
      <point x="198" y="351" type="line"/>
      <point x="33" y="351" type="line"/>
    </contour>
    <contour>
      <point x="99" y="351" type="line"/>
      <point x="156" y="-185" type="line"/>
      <point x="248" y="-185" type="line"/>
      <point x="270" y="-95" type="line"/>
      <point x="237" y="351" type="line"/>
    </contour>
    <contour>
      <point x="177" y="-185" type="line"/>
      <point x="265" y="-185" type="line"/>
      <point x="727" y="690" type="line"/>
      <point x="583" y="690" type="line"/>
      <point x="184" y="-95" type="line"/>
    </contour>
  </outline>
</glyph>
<glyph name="integral" format="1">
  <advance width="356.87228465261427"/>
  <unicode hex="222B"/>
  <outline>
    <contour>
      <point x="-125" y="-178" type="line"/>
      <point x="-97" y="-190"/>
      <point x="-62" y="-197"/>
      <point x="-26" y="-197" type="curve"/>
      <point x="81" y="-197"/>
      <point x="148" y="-137"/>
      <point x="177" y="-1" type="curve" smooth="yes"/>
      <point x="288" y="522" type="line" smooth="yes"/>
      <point x="300" y="577"/>
      <point x="326" y="605"/>
      <point x="363" y="605" type="curve"/>
      <point x="378" y="605"/>
      <point x="394" y="602"/>
      <point x="412" y="593" type="curve"/>
      <point x="455" y="713" type="line"/>
      <point x="427" y="725"/>
      <point x="392" y="732"/>
      <point x="356" y="732" type="curve"/>
      <point x="249" y="732"/>
      <point x="182" y="672"/>
      <point x="153" y="536" type="curve" smooth="yes"/>
      <point x="42" y="13" type="line" smooth="yes"/>
      <point x="30" y="-42"/>
      <point x="4" y="-70"/>
      <point x="-33" y="-70" type="curve"/>
      <point x="-48" y="-70"/>
      <point x="-64" y="-67"/>
      <point x="-82" y="-58" type="curve"/>
    </contour>
  </outline>
</glyph>
<glyph name="lessequal" format="1">
  <advance width="500"/>
  <unicode hex="2264"/>
  <outline>
    <contour>
      <point x="5" y="59" type="line"/>
      <point x="382" y="59" type="line"/>
      <point x="407" y="180" type="line"/>
      <point x="385" y="198" type="line"/>
      <point x="34" y="198" type="line"/>
    </contour>
    <contour>
      <point x="57" y="306" type="line"/>
      <point x="407" y="180" type="line"/>
      <point x="436" y="317" type="line"/>
      <point x="159" y="394" type="line"/>
      <point x="88" y="453" type="line"/>
    </contour>
    <contour>
      <point x="57" y="306" type="line"/>
      <point x="151" y="357" type="line"/>
      <point x="460" y="430" type="line"/>
      <point x="492" y="579" type="line"/>
      <point x="88" y="453" type="line"/>
    </contour>
  </outline>
</glyph>
<glyph name="lozenge" format="1">
  <advance width="556.3585971156936"/>
  <unicode hex="25CA"/>
  <outline>
    <contour>
      <point x="34" y="290" type="line"/>
      <point x="149" y="-110" type="line"/>
      <point x="230" y="-110" type="line"/>
      <point x="250" y="14" type="line"/>
      <point x="171" y="300" type="line"/>
    </contour>
    <contour>
      <point x="34" y="290" type="line"/>
      <point x="176" y="276" type="line"/>
      <point x="386" y="566" type="line"/>
      <point x="393" y="690" type="line"/>
      <point x="318" y="690" type="line"/>
    </contour>
    <contour>
      <point x="166" y="-110" type="line"/>
      <point x="242" y="-110" type="line"/>
      <point x="526" y="290" type="line"/>
      <point x="390" y="320" type="line"/>
      <point x="190" y="14" type="line"/>
    </contour>
    <contour>
      <point x="308" y="566" type="line"/>
      <point x="388" y="280" type="line"/>
      <point x="526" y="290" type="line"/>
      <point x="410" y="690" type="line"/>
      <point x="330" y="690" type="line"/>
    </contour>
  </outline>
</glyph>
<glyph name="gem" format="1">
  <advance width="1087.8124953497322"/>
  <unicode hex="F8FF"/>
  <outline>
    <contour>
      <point x="52" y="320" type="curve" smooth="yes"/>
      <point x="52" y="256"/>
      <point x="88" y="198"/>
      <point x="139" y="167" type="curve"/>
      <point x="139" y="473" type="line"/>
      <point x="88" y="442"/>
      <point x="52" y="384"/>
    </contour>
    <contour>
      <point x="168" y="320" type="curve" smooth="yes"/>
      <point x="168" y="221"/>
      <point x="248" y="141"/>
      <point x="346" y="141" type="curve"/>
      <point x="346" y="499" type="line"/>
      <point x="248" y="499"/>
      <point x="168" y="419"/>
    </contour>
    <contour>
      <point x="176" y="114" type="line"/>
      <point x="176" y="20"/>
      <point x="252" y="-56"/>
      <point x="346" y="-56" type="curve"/>
      <point x="346" y="114" type="line"/>
    </contour>
    <contour>
      <point x="176" y="526" type="curve"/>
      <point x="346" y="526" type="line"/>
      <point x="346" y="696" type="line"/>
      <point x="252" y="696"/>
      <point x="176" y="620"/>
    </contour>
    <contour>
      <point x="373" y="114" type="line"/>
      <point x="373" y="16"/>
      <point x="453" y="-64"/>
      <point x="552" y="-64" type="curve" smooth="yes"/>
      <point x="651" y="-64"/>
      <point x="731" y="16"/>
      <point x="731" y="114" type="curve"/>
    </contour>
    <contour>
      <point x="373" y="320" type="curve" smooth="yes"/>
      <point x="373" y="221"/>
      <point x="453" y="141"/>
      <point x="552" y="141" type="curve" smooth="yes"/>
      <point x="651" y="141"/>
      <point x="731" y="221"/>
      <point x="731" y="320" type="curve" smooth="yes"/>
      <point x="731" y="419"/>
      <point x="651" y="499"/>
      <point x="552" y="499" type="curve" smooth="yes"/>
      <point x="453" y="499"/>
      <point x="373" y="419"/>
    </contour>
    <contour>
      <point x="373" y="526" type="curve"/>
      <point x="731" y="526" type="line"/>
      <point x="731" y="624"/>
      <point x="651" y="704"/>
      <point x="552" y="704" type="curve" smooth="yes"/>
      <point x="453" y="704"/>
      <point x="373" y="624"/>
    </contour>
    <contour>
      <point x="399" y="-93" type="line"/>
      <point x="430" y="-144"/>
      <point x="488" y="-180"/>
      <point x="552" y="-180" type="curve" smooth="yes"/>
      <point x="616" y="-180"/>
      <point x="674" y="-144"/>
      <point x="705" y="-93" type="curve"/>
    </contour>
    <contour>
      <point x="399" y="733" type="curve"/>
      <point x="705" y="733" type="line"/>
      <point x="674" y="784"/>
      <point x="616" y="820"/>
      <point x="552" y="820" type="curve" smooth="yes"/>
      <point x="488" y="820"/>
      <point x="430" y="784"/>
    </contour>
    <contour>
      <point x="758" y="-56" type="line"/>
      <point x="852" y="-56"/>
      <point x="928" y="20"/>
      <point x="928" y="114" type="curve"/>
      <point x="758" y="114" type="line"/>
    </contour>
    <contour>
      <point x="758" y="141" type="line"/>
      <point x="856" y="141"/>
      <point x="936" y="221"/>
      <point x="936" y="320" type="curve" smooth="yes"/>
      <point x="936" y="419"/>
      <point x="856" y="499"/>
      <point x="758" y="499" type="curve"/>
    </contour>
    <contour>
      <point x="758" y="526" type="line"/>
      <point x="928" y="526" type="line"/>
      <point x="928" y="620"/>
      <point x="852" y="696"/>
      <point x="758" y="696" type="curve"/>
    </contour>
    <contour>
      <point x="965" y="167" type="line"/>
      <point x="1016" y="198"/>
      <point x="1052" y="256"/>
      <point x="1052" y="320" type="curve" smooth="yes"/>
      <point x="1052" y="384"/>
      <point x="1016" y="442"/>
      <point x="965" y="473" type="curve"/>
    </contour>
  </outline>
</glyph>
<glyph name="f_f" format="1">
  <advance width="654.2973977759543"/>
  <unicode hex="FB00"/>
  <outline>
    <contour>
      <point x="29" y="0" type="line"/>
      <point x="166" y="0" type="line"/>
      <point x="277" y="522" type="line" smooth="yes"/>
      <point x="289" y="577"/>
      <point x="312" y="601"/>
      <point x="349" y="601" type="curve"/>
      <point x="364" y="601"/>
      <point x="381" y="598"/>
      <point x="397" y="589" type="curve"/>
      <point x="441" y="709" type="line"/>
      <point x="414" y="721"/>
      <point x="380" y="730"/>
      <point x="343" y="730" type="curve" smooth="yes"/>
      <point x="241" y="730"/>
      <point x="171" y="668"/>
      <point x="143" y="536" type="curve" smooth="yes"/>
    </contour>
    <contour>
      <point x="40" y="407" type="line"/>
      <point x="362" y="407" type="line"/>
      <point x="387" y="525" type="line"/>
      <point x="65" y="525" type="line"/>
    </contour>
    <contour>
      <point x="351" y="0" type="line"/>
      <point x="488" y="0" type="line"/>
      <point x="599" y="522" type="line" smooth="yes"/>
      <point x="611" y="577"/>
      <point x="634" y="601"/>
      <point x="671" y="601" type="curve"/>
      <point x="686" y="601"/>
      <point x="703" y="598"/>
      <point x="719" y="589" type="curve"/>
      <point x="763" y="709" type="line"/>
      <point x="736" y="721"/>
      <point x="702" y="730"/>
      <point x="665" y="730" type="curve" smooth="yes"/>
      <point x="563" y="730"/>
      <point x="493" y="668"/>
      <point x="465" y="536" type="curve" smooth="yes"/>
    </contour>
    <contour>
      <point x="362" y="407" type="line"/>
      <point x="684" y="407" type="line"/>
      <point x="709" y="525" type="line"/>
      <point x="387" y="525" type="line"/>
    </contour>
  </outline>
</glyph>
<glyph name="I.alt" format="1">
  <advance width="286.33597244768475"/>
  <outline>
    <contour>
      <point x="10" y="0" type="line"/>
      <point x="156" y="0" type="line"/>
      <point x="303" y="690" type="line"/>
      <point x="157" y="690" type="line"/>
    </contour>
    <contour>
      <point x="230" y="690" type="move" name="top"/>
    </contour>
    <contour>
      <point x="10" y="0" type="move" name="ogonek"/>
    </contour>
    <contour>
      <point x="85" y="0" type="move" name="bottom"/>
    </contour>
  </outline>
</glyph>
<glyph name="J.alt" format="1">
  <advance width="471.34875551418463"/>
  <outline>
    <contour>
      <point x="-35" y="67" type="line"/>
      <point x="12" y="17"/>
      <point x="71" y="-10"/>
      <point x="147" y="-10" type="curve"/>
      <point x="265" y="-10"/>
      <point x="363" y="63"/>
      <point x="400" y="237" type="curve" smooth="yes"/>
      <point x="497" y="690" type="line"/>
      <point x="352" y="690" type="line"/>
      <point x="261" y="262" type="line" smooth="yes"/>
      <point x="241" y="166"/>
      <point x="201" y="125"/>
      <point x="144" y="125" type="curve"/>
      <point x="114" y="125"/>
      <point x="78" y="143"/>
      <point x="52" y="173" type="curve"/>
    </contour>
    <contour>
      <point x="426" y="690" type="move" name="top"/>
    </contour>
  </outline>
</glyph>
<glyph name=".notdef" format="1">
  <advance width="500"/>
  <outline>
    <contour>
      <point x="54" y="-185" type="line"/>
      <point x="178" y="-185" type="line"/>
      <point x="178" y="690" type="line"/>
      <point x="54" y="690" type="line"/>
    </contour>
    <contour>
      <point x="114" y="-185" type="line"/>
      <point x="374" y="-185" type="line"/>
      <point x="374" y="-72" type="line"/>
      <point x="114" y="-72" type="line"/>
    </contour>
    <contour>
      <point x="114" y="577" type="line"/>
      <point x="374" y="577" type="line"/>
      <point x="374" y="690" type="line"/>
      <point x="114" y="690" type="line"/>
    </contour>
    <contour>
      <point x="310" y="-185" type="line"/>
      <point x="434" y="-185" type="line"/>
      <point x="434" y="690" type="line"/>
      <point x="310" y="690" type="line"/>
    </contour>
  </outline>
</glyph>
<glyph name="acute.cap" format="1">
  <advance width="500"/>
  <outline>
    <contour>
      <point x="281" y="750" type="line"/>
      <point x="389" y="750" type="line"/>
      <point x="538" y="885" type="line"/>
      <point x="393" y="885" type="line"/>
    </contour>
    <contour>
      <point x="337" y="690" type="move" name="_top"/>
    </contour>
  </outline>
</glyph>
<glyph name="aogonek.alt" format="1">
  <advance width="522"/>
  <outline>
    <contour>
      <point x="16" y="178" type="curve"/>
      <point x="16" y="63"/>
      <point x="65" y="-10"/>
      <point x="149" y="-10" type="curve"/>
      <point x="208" y="-10"/>
      <point x="265" y="31"/>
      <point x="302" y="101" type="curve"/>
      <point x="289" y="95" type="line"/>
      <point x="289" y="17"/>
      <point x="328" y="-10"/>
      <point x="375" y="-10" type="curve"/>
      <point x="392" y="-10"/>
      <point x="411" y="-7"/>
      <point x="428" y="0" type="curve"/>
      <point x="455" y="126" type="line"/>
      <point x="452" y="125"/>
      <point x="447" y="124"/>
      <point x="444" y="124" type="curve"/>
      <point x="430" y="124"/>
      <point x="427" y="137"/>
      <point x="430" y="156" type="curve"/>
      <point x="509" y="525" type="line"/>
      <point x="383" y="525" type="line"/>
      <point x="364" y="483" type="line"/>
      <point x="324" y="298" type="line" smooth="yes"/>
      <point x="299" y="184"/>
      <point x="243" y="125"/>
      <point x="203" y="125" type="curve"/>
      <point x="177" y="125"/>
      <point x="158" y="144"/>
      <point x="158" y="199" type="curve"/>
      <point x="158" y="300"/>
      <point x="205" y="410"/>
      <point x="278" y="410" type="curve"/>
      <point x="309" y="410"/>
      <point x="338" y="398"/>
      <point x="362" y="361" type="curve"/>
      <point x="385" y="483" type="line"/>
      <point x="356" y="517"/>
      <point x="313" y="535"/>
      <point x="269" y="535" type="curve"/>
      <point x="136" y="535"/>
      <point x="16" y="356"/>
    </contour>
    <contour>
      <point x="245" y="-117" type="curve"/>
      <point x="245" y="-161"/>
      <point x="273" y="-195"/>
      <point x="321" y="-195" type="curve"/>
      <point x="351" y="-195"/>
      <point x="384" y="-182"/>
      <point x="403" y="-168" type="curve"/>
      <point x="382" y="-98" type="line"/>
      <point x="367" y="-110"/>
      <point x="356" y="-115"/>
      <point x="345" y="-115" type="curve"/>
      <point x="332" y="-115"/>
      <point x="327" y="-107"/>
      <point x="327" y="-96" type="curve" smooth="yes"/>
      <point x="327" y="-74"/>
      <point x="348" y="-35"/>
      <point x="428" y="0" type="curve"/>
      <point x="330" y="10" type="line"/>
      <point x="274" y="-25"/>
      <point x="245" y="-75"/>
    </contour>
  </outline>
</glyph>
<glyph name="breve.cap" format="1">
  <advance width="500"/>
  <outline>
    <contour>
      <point x="246" y="858" type="curve" smooth="yes"/>
      <point x="246" y="783"/>
      <point x="289" y="739"/>
      <point x="359" y="739" type="curve"/>
      <point x="439" y="739"/>
      <point x="493" y="790"/>
      <point x="505" y="885" type="curve"/>
      <point x="429" y="885" type="line"/>
      <point x="419" y="856"/>
      <point x="400" y="832"/>
      <point x="366" y="832" type="curve" smooth="yes"/>
      <point x="335" y="832"/>
      <point x="323" y="852"/>
      <point x="323" y="879" type="curve" smooth="yes"/>
      <point x="323" y="882"/>
      <point x="323" y="884"/>
      <point x="323" y="885" type="curve"/>
      <point x="249" y="885" type="line"/>
      <point x="247" y="878"/>
      <point x="246" y="870"/>
    </contour>
    <contour>
      <point x="337" y="690" type="move" name="_top"/>
    </contour>
  </outline>
</glyph>
<glyph name="caron.alt" format="1">
  <advance width="500"/>
  <outline>
    <contour>
      <point x="275" y="525" type="line"/>
      <point x="385" y="525" type="line"/>
      <point x="476" y="730" type="line"/>
      <point x="340" y="730" type="line"/>
    </contour>
    <contour>
      <point x="343" y="720" type="move" name="_caron.alt"/>
    </contour>
  </outline>
</glyph>
<glyph name="caron.cap" format="1">
  <advance width="500"/>
  <outline>
    <contour>
      <point x="215" y="885" type="line"/>
      <point x="283" y="750" type="line"/>
      <point x="426" y="750" type="line"/>
      <point x="329" y="885" type="line"/>
    </contour>
    <contour>
      <point x="283" y="750" type="line"/>
      <point x="429" y="750" type="line"/>
      <point x="540" y="885" type="line"/>
      <point x="431" y="885" type="line"/>
    </contour>
    <contour>
      <point x="337" y="690" type="move" name="_top"/>
    </contour>
  </outline>
</glyph>
<glyph name="circumflex.cap" format="1">
  <advance width="500"/>
  <outline>
    <contour>
      <point x="186" y="750" type="line"/>
      <point x="295" y="750" type="line"/>
      <point x="443" y="885" type="line"/>
      <point x="297" y="885" type="line"/>
    </contour>
    <contour>
      <point x="300" y="885" type="line"/>
      <point x="396" y="750" type="line"/>
      <point x="511" y="750" type="line"/>
      <point x="443" y="885" type="line"/>
    </contour>
    <contour>
      <point x="337" y="690" type="move" name="_top"/>
    </contour>
  </outline>
</glyph>
<glyph name="commaaccent.alt" format="1">
  <advance width="500"/>
  <outline>
    <contour>
      <point x="443" y="902" type="line"/>
      <point x="374" y="902" type="line"/>
      <point x="311" y="801" type="line" smooth="yes"/>
      <point x="285" y="759"/>
      <point x="264" y="723"/>
      <point x="264" y="681" type="curve"/>
      <point x="264" y="642"/>
      <point x="292" y="616"/>
      <point x="329" y="616" type="curve"/>
      <point x="371" y="616"/>
      <point x="412" y="654"/>
      <point x="412" y="703" type="curve"/>
      <point x="412" y="733"/>
      <point x="396" y="754"/>
      <point x="379" y="762" type="curve"/>
    </contour>
    <contour>
      <point x="302" y="526" type="move" name="_top"/>
    </contour>
  </outline>
</glyph>
<glyph name="commaaccent" format="1">
  <advance width="500"/>
  <outline>
    <contour>
      <point x="55" y="-354" type="line"/>
      <point x="124" y="-354" type="line"/>
      <point x="187" y="-253" type="line" smooth="yes"/>
      <point x="213" y="-211"/>
      <point x="234" y="-175"/>
      <point x="234" y="-133" type="curve"/>
      <point x="234" y="-94"/>
      <point x="206" y="-68"/>
      <point x="169" y="-68" type="curve"/>
      <point x="127" y="-68"/>
      <point x="86" y="-106"/>
      <point x="86" y="-155" type="curve"/>
      <point x="86" y="-185"/>
      <point x="102" y="-206"/>
      <point x="119" y="-214" type="curve"/>
    </contour>
    <contour>
      <point x="188" y="-12" type="move" name="_bottom"/>
    </contour>
  </outline>
</glyph>
<glyph name="dieresis.cap" format="1">
  <advance width="500"/>
  <outline>
    <contour>
      <point x="193" y="819" type="curve" smooth="yes"/>
      <point x="193" y="782"/>
      <point x="218" y="755"/>
      <point x="254" y="755" type="curve"/>
      <point x="301" y="755"/>
      <point x="341" y="794"/>
      <point x="341" y="845" type="curve" smooth="yes"/>
      <point x="341" y="882"/>
      <point x="315" y="909"/>
      <point x="279" y="909" type="curve"/>
      <point x="233" y="909"/>
      <point x="193" y="870"/>
    </contour>
    <contour>
      <point x="392" y="819" type="curve" smooth="yes"/>
      <point x="392" y="782"/>
      <point x="417" y="755"/>
      <point x="453" y="755" type="curve"/>
      <point x="500" y="755"/>
      <point x="540" y="794"/>
      <point x="540" y="845" type="curve" smooth="yes"/>
      <point x="540" y="882"/>
      <point x="514" y="909"/>
      <point x="478" y="909" type="curve"/>
      <point x="432" y="909"/>
      <point x="392" y="870"/>
    </contour>
    <contour>
      <point x="337" y="690" type="move" name="_top"/>
    </contour>
  </outline>
</glyph>
<glyph name="dotaccent.cap" format="1">
  <advance width="500"/>
  <outline>
    <contour>
      <point x="293" y="819" type="curve" smooth="yes"/>
      <point x="293" y="782"/>
      <point x="318" y="755"/>
      <point x="354" y="755" type="curve"/>
      <point x="401" y="755"/>
      <point x="441" y="794"/>
      <point x="441" y="845" type="curve" smooth="yes"/>
      <point x="441" y="882"/>
      <point x="415" y="909"/>
      <point x="379" y="909" type="curve"/>
      <point x="333" y="909"/>
      <point x="293" y="870"/>
    </contour>
    <contour>
      <point x="337" y="690" type="move" name="_top"/>
    </contour>
  </outline>
</glyph>
<glyph name="dotbelow" format="1">
  <advance width="500"/>
  <outline>
    <component base="dotaccent" xOffset="-173" yOffset="-812"/>
    <contour>
      <point x="190" y="0" type="move" name="_bottom"/>
    </contour>
  </outline>
</glyph>
<glyph name="grave.cap" format="1">
  <advance width="500"/>
  <outline>
    <contour>
      <point x="217" y="884" type="line"/>
      <point x="298" y="750" type="line"/>
      <point x="406" y="750" type="line"/>
      <point x="351" y="884" type="line"/>
    </contour>
    <contour>
      <point x="337" y="690" type="move" name="_top"/>
    </contour>
  </outline>
</glyph>
<glyph name="hungarumlaut.cap" format="1">
  <advance width="500"/>
  <outline>
    <contour>
      <point x="216" y="750" type="line"/>
      <point x="306" y="750" type="line"/>
      <point x="420" y="885" type="line"/>
      <point x="294" y="885" type="line"/>
    </contour>
    <contour>
      <point x="380" y="750" type="line"/>
      <point x="470" y="750" type="line"/>
      <point x="592" y="885" type="line"/>
      <point x="466" y="885" type="line"/>
    </contour>
    <contour>
      <point x="337" y="690" type="move" name="_top"/>
    </contour>
  </outline>
</glyph>
<glyph name="macron.cap" format="1">
  <advance width="500"/>
  <outline>
    <contour>
      <point x="207" y="769" type="line"/>
      <point x="501" y="769" type="line"/>
      <point x="526" y="886" type="line"/>
      <point x="232" y="886" type="line"/>
    </contour>
    <contour>
      <point x="337" y="690" type="move" name="_top"/>
    </contour>
  </outline>
</glyph>
<glyph name="one.pl" format="1">
  <advance width="402.33597244768475"/>
  <outline>
    <contour>
      <point x="78" y="596" type="line"/>
      <point x="115" y="482" type="line"/>
      <point x="310" y="567" type="line"/>
      <point x="297" y="690" type="line"/>
    </contour>
    <contour>
      <point x="104" y="0" type="line"/>
      <point x="247" y="0" type="line"/>
      <point x="394" y="690" type="line"/>
      <point x="297" y="690" type="line"/>
      <point x="239" y="637" type="line"/>
    </contour>
  </outline>
</glyph>
<glyph name="ring.cap" format="1">
  <advance width="500"/>
  <outline>
    <contour>
      <point x="262" y="834" type="curve" smooth="yes"/>
      <point x="262" y="774"/>
      <point x="303" y="740"/>
      <point x="357" y="740" type="curve" smooth="yes"/>
      <point x="424" y="740"/>
      <point x="483" y="789"/>
      <point x="483" y="864" type="curve" smooth="yes"/>
      <point x="483" y="923"/>
      <point x="442" y="960"/>
      <point x="388" y="960" type="curve" smooth="yes"/>
      <point x="322" y="960"/>
      <point x="262" y="909"/>
    </contour>
    <contour>
      <point x="332" y="840" type="curve" smooth="yes"/>
      <point x="332" y="872"/>
      <point x="355" y="889"/>
      <point x="379" y="889" type="curve" smooth="yes"/>
      <point x="398" y="889"/>
      <point x="412" y="877"/>
      <point x="412" y="859" type="curve" smooth="yes"/>
      <point x="412" y="827"/>
      <point x="388" y="810"/>
      <point x="364" y="810" type="curve" smooth="yes"/>
      <point x="347" y="810"/>
      <point x="332" y="821"/>
    </contour>
    <contour>
      <point x="337" y="690" type="move" name="_top"/>
    </contour>
  </outline>
</glyph>
<glyph name="ring_acute.cap" format="1">
  <advance width="500"/>
  <outline>
    <component base="ring.cap" xOffset="8"/>
    <component base="acute.cap" xOffset="76" yOffset="249"/>
    <contour>
      <point x="337" y="690" type="move" name="_top"/>
    </contour>
  </outline>
</glyph>
<glyph name="ring_acute" format="1">
  <advance width="500"/>
  <outline>
    <component base="ring" xOffset="8"/>
    <component base="acute" xOffset="74" yOffset="269"/>
    <contour>
      <point x="302" y="525" type="move" name="_top"/>
    </contour>
  </outline>
</glyph>
<glyph name="seven.pl" format="1">
  <advance width="504.33597244768475"/>
  <outline>
    <contour>
      <point x="38" y="0" type="line"/>
      <point x="201" y="0" type="line"/>
      <point x="512" y="590" type="line"/>
      <point x="424" y="690" type="line"/>
    </contour>
    <contour>
      <point x="88" y="551" type="line"/>
      <point x="463" y="551" type="line"/>
      <point x="512" y="590" type="line"/>
      <point x="534" y="690" type="line"/>
      <point x="118" y="690" type="line"/>
    </contour>
  </outline>
</glyph>
<glyph name="tilde.cap" format="1">
  <advance width="500"/>
  <outline>
    <contour>
      <point x="206" y="761" type="curve"/>
      <point x="267" y="761" type="line"/>
      <point x="279" y="790"/>
      <point x="293" y="799"/>
      <point x="309" y="799" type="curve" smooth="yes"/>
      <point x="336" y="799"/>
      <point x="356" y="756"/>
      <point x="414" y="756" type="curve"/>
      <point x="476" y="756"/>
      <point x="516" y="808"/>
      <point x="527" y="892" type="curve"/>
      <point x="465" y="892" type="line"/>
      <point x="454" y="863"/>
      <point x="439" y="854"/>
      <point x="423" y="854" type="curve" smooth="yes"/>
      <point x="396" y="854"/>
      <point x="376" y="897"/>
      <point x="317" y="897" type="curve"/>
      <point x="256" y="897"/>
      <point x="216" y="844"/>
    </contour>
    <contour>
      <point x="337" y="690" type="move" name="_top"/>
    </contour>
  </outline>
</glyph>
<glyph name="u.alt" format="1">
  <advance width="544.0"/>
  <outline>
    <contour>
      <point x="35" y="147" type="curve"/>
      <point x="35" y="50"/>
      <point x="85" y="-10"/>
      <point x="163" y="-10" type="curve"/>
      <point x="230" y="-10"/>
      <point x="293" y="27"/>
      <point x="329" y="101" type="curve"/>
      <point x="312" y="95" type="line"/>
      <point x="312" y="17"/>
      <point x="351" y="-10"/>
      <point x="398" y="-10" type="curve"/>
      <point x="415" y="-10"/>
      <point x="434" y="-7"/>
      <point x="451" y="0" type="curve"/>
      <point x="478" y="126" type="line"/>
      <point x="475" y="125"/>
      <point x="470" y="124"/>
      <point x="467" y="124" type="curve" smooth="yes"/>
      <point x="453" y="124"/>
      <point x="449" y="137"/>
      <point x="453" y="156" type="curve" smooth="yes"/>
      <point x="532" y="525" type="line"/>
      <point x="395" y="525" type="line"/>
      <point x="346" y="297" type="line" smooth="yes"/>
      <point x="320" y="177"/>
      <point x="267" y="127"/>
      <point x="220" y="127" type="curve"/>
      <point x="192" y="127"/>
      <point x="175" y="144"/>
      <point x="175" y="176" type="curve" smooth="yes"/>
      <point x="175" y="189"/>
      <point x="177" y="203"/>
      <point x="179" y="213" type="curve" smooth="yes"/>
      <point x="246" y="525" type="line"/>
      <point x="108" y="525" type="line"/>
      <point x="42" y="215" type="line" smooth="yes"/>
      <point x="37" y="193"/>
      <point x="35" y="170"/>
    </contour>
    <contour>
      <point x="321" y="526" type="move" name="top"/>
    </contour>
    <contour>
      <point x="342" y="0" type="move" name="ogonek"/>
    </contour>
    <contour>
      <point x="237" y="0" type="move" name="bottom"/>
    </contour>
  </outline>
</glyph>
<glyph name="uogonek.alt" format="1">
  <advance width="520.1346154839038"/>
  <outline>
    <contour>
      <point x="34" y="152" type="curve" smooth="yes"/>
      <point x="30" y="48"/>
      <point x="84" y="-12"/>
      <point x="167" y="-12" type="curve"/>
      <point x="237" y="-12"/>
      <point x="286" y="21"/>
      <point x="325" y="85" type="curve"/>
      <point x="312" y="95" type="line"/>
      <point x="311" y="17"/>
      <point x="346" y="-12"/>
      <point x="393" y="-12" type="curve" smooth="yes"/>
      <point x="409" y="-12"/>
      <point x="432" y="-7"/>
      <point x="450" y="0" type="curve"/>
      <point x="478" y="126" type="line"/>
      <point x="473" y="124"/>
      <point x="468" y="123"/>
      <point x="464" y="123" type="curve" smooth="yes"/>
      <point x="452" y="123"/>
      <point x="449" y="137"/>
      <point x="452" y="156" type="curve" smooth="yes"/>
      <point x="531" y="526" type="line"/>
      <point x="394" y="526" type="line"/>
      <point x="347" y="298" type="line" smooth="yes"/>
      <point x="324" y="189"/>
      <point x="262" y="125"/>
      <point x="218" y="125" type="curve"/>
      <point x="189" y="125"/>
      <point x="173" y="142"/>
      <point x="175" y="180" type="curve" smooth="yes"/>
      <point x="175" y="190"/>
      <point x="177" y="199"/>
      <point x="179" y="211" type="curve" smooth="yes"/>
      <point x="245" y="526" type="line"/>
      <point x="108" y="526" type="line"/>
      <point x="42" y="213" type="line" smooth="yes"/>
      <point x="37" y="191"/>
      <point x="34" y="171"/>
    </contour>
    <contour>
      <point x="267" y="-121" type="curve" smooth="yes"/>
      <point x="266" y="-163"/>
      <point x="291" y="-197"/>
      <point x="334" y="-197" type="curve" smooth="yes"/>
      <point x="369" y="-197"/>
      <point x="402" y="-185"/>
      <point x="421" y="-170" type="curve"/>
      <point x="406" y="-97" type="line"/>
      <point x="391" y="-107"/>
      <point x="381" y="-115"/>
      <point x="364" y="-115" type="curve"/>
      <point x="354" y="-115"/>
      <point x="349" y="-107"/>
      <point x="349" y="-96" type="curve" smooth="yes"/>
      <point x="350" y="-74"/>
      <point x="370" y="-35"/>
      <point x="450" y="0" type="curve"/>
      <point x="342" y="0" type="line"/>
      <point x="294" y="-25"/>
      <point x="269" y="-77"/>
    </contour>
  </outline>
</glyph>
